<?xml version="1.0" encoding="UTF-8"?>
<svg version="1.1" xmlns="http://www.w3.org/2000/svg" width="500" height="500">
<path d="M0 0 C0.99 0 1.98 0 3 0 C3 2.64 3 5.28 3 8 C4.98 8 6.96 8 9 8 C9 19.55 9 31.1 9 43 C9.33 40.03 9.66 37.06 10 34 C12.475 33.505 12.475 33.505 15 33 C15 30.36 15 27.72 15 25 C16.98 24.505 16.98 24.505 19 24 C19 26.97 19 29.94 19 33 C20.98 33 22.96 33 25 33 C25.33 41.25 25.66 49.5 26 58 C28.64 59.32 31.28 60.64 34 62 C34 62.66 34 63.32 34 64 C37.50538557 65.96301592 41.13351728 66.95902388 45 68 C45 68.99 45 69.98 45 71 C42.59454362 72.20272819 41.05003047 72.10071472 38.375 72.0625 C37.55773437 72.05347656 36.74046875 72.04445313 35.8984375 72.03515625 C35.27195313 72.02355469 34.64546875 72.01195312 34 72 C34 76.47731299 35.16606583 78.96534483 37 83 C37.33 83.99 37.66 84.98 38 86 C35.75 86.3125 35.75 86.3125 33 86 C30.08637647 83.00068166 28.12823524 79.57711855 26 76 C25.96241577 77.62796509 25.96241577 77.62796509 25.92407227 79.28881836 C25.83016245 83.301316 25.72990233 87.31363382 25.62768555 91.32592773 C25.58427427 93.06514288 25.54260388 94.80440235 25.50268555 96.54370117 C25.44513232 99.03838488 25.3813958 101.5328441 25.31640625 104.02734375 C25.29969376 104.80963852 25.28298126 105.59193329 25.26576233 106.39793396 C25.11387171 111.88612829 25.11387171 111.88612829 24 113 C22.33382885 113.04063832 20.66611905 113.042721 19 113 C19 115.64 19 118.28 19 121 C17.68 121 16.36 121 15 121 C15 118.03 15 115.06 15 112 C13.35 112 11.7 112 10 112 C9.17648136 105.61773055 8.87913782 99.43255401 9 93 C8.08927734 92.85884766 8.08927734 92.85884766 7.16015625 92.71484375 C4.49473744 91.83279738 3.91326084 90.90520945 2.4375 88.5625 C0.69856701 85.83152 -0.17896019 84.8806932 -3 83 C-2.690625 83.721875 -2.38125 84.44375 -2.0625 85.1875 C-1.06613032 87.82494915 -0.37710819 90.20939943 0 93 C-0.33 93.66 -0.66 94.32 -1 95 C-1.66 95 -2.32 95 -3 95 C-3.433125 95.8971875 -3.433125 95.8971875 -3.875 96.8125 C-5 99 -5 99 -7 102 C-7.4603764 105.19806665 -7.4603764 105.19806665 -7.625 108.6875 C-7.69976562 109.86699219 -7.77453125 111.04648437 -7.8515625 112.26171875 C-7.92503906 113.61716797 -7.92503906 113.61716797 -8 115 C-9.65 115 -11.3 115 -13 115 C-13 118.3 -13 121.6 -13 125 C-14.32 125.33 -15.64 125.66 -17 126 C-18 125 -18 125 -18.09765625 122.93359375 C-18.08605469 122.10988281 -18.07445312 121.28617187 -18.0625 120.4375 C-18.05347656 119.61121094 -18.04445313 118.78492188 -18.03515625 117.93359375 C-18.02355469 117.29550781 -18.01195312 116.65742188 -18 116 C-19.65 115.67 -21.3 115.34 -23 115 C-22.98839844 114.25234375 -22.97679687 113.5046875 -22.96484375 112.734375 C-22.95582031 111.74953125 -22.94679688 110.7646875 -22.9375 109.75 C-22.92589844 108.77546875 -22.91429687 107.8009375 -22.90234375 106.796875 C-22.98846014 104.33050152 -23.3376178 102.35745475 -24 100 C-24 99.34 -24 98.68 -24 98 C-25.98 97.505 -25.98 97.505 -28 97 C-28 95.68 -28 94.36 -28 93 C-28.66 93 -29.32 93 -30 93 C-30 95.64 -30 98.28 -30 101 C-31.32 101 -32.64 101 -34 101 C-34 98.36 -34 95.72 -34 93 C-35.65 93 -37.3 93 -39 93 C-39.06058594 94.21558594 -39.12117188 95.43117188 -39.18359375 96.68359375 C-39.26798332 98.26824228 -39.3526321 99.85287702 -39.4375 101.4375 C-39.47681641 102.23994141 -39.51613281 103.04238281 -39.55664062 103.86914062 C-39.88671875 109.88671875 -39.88671875 109.88671875 -41 111 C-42.66617115 111.04063832 -44.33388095 111.042721 -46 111 C-46 113.64 -46 116.28 -46 119 C-47.32 119 -48.64 119 -50 119 C-50 116.36 -50 113.72 -50 111 C-51.65 111 -53.3 111 -55 111 C-56 104.25 -56 104.25 -56 102 C-57.98 102 -59.96 102 -62 102 C-62 104.97 -62 107.94 -62 111 C-63.32 111 -64.64 111 -66 111 C-66 108.03 -66 105.06 -66 102 C-68.31 101.67 -70.62 101.34 -73 101 C-73 104.96 -73 108.92 -73 113 C-74.65 113 -76.3 113 -78 113 C-78 115.31 -78 117.62 -78 120 C-79.98 120.495 -79.98 120.495 -82 121 C-82 118.03 -82 115.06 -82 112 C-83.98 112 -85.96 112 -88 112 C-88.33 113.65 -88.66 115.3 -89 117 C-90.31057393 117.36122881 -91.62353624 117.71380311 -92.9375 118.0625 C-93.66839844 118.25972656 -94.39929688 118.45695312 -95.15234375 118.66015625 C-96.06693359 118.82837891 -96.06693359 118.82837891 -97 119 C-98 118 -98 118 -98.25 114.75 C-97.99026663 110.85399939 -97.26032469 109.10794645 -95 106 C-98.96388638 105.92377142 -102.1273408 106.0318352 -106 107 C-106 113.6 -106 120.2 -106 127 C-107.65 127 -109.3 127 -111 127 C-111 129.97 -111 132.94 -111 136 C-112.32 136 -113.64 136 -115 136 C-115 133.03 -115 130.06 -115 127 C-116.65 127 -118.3 127 -120 127 C-120.33 121.06 -120.66 115.12 -121 109 C-121.33 112.3 -121.66 115.6 -122 119 C-124.475 119.495 -124.475 119.495 -127 120 C-127 121.65 -127 123.3 -127 125 C-128.98 125.495 -128.98 125.495 -131 126 C-131 123.69 -131 121.38 -131 119 C-132.65 119 -134.3 119 -136 119 C-136.83140715 115.40736145 -137.09935651 112.15835865 -137.02172852 108.4753418 C-137.00163223 107.39459885 -136.98153595 106.3138559 -136.96083069 105.20036316 C-136.93379562 104.0449855 -136.90676056 102.88960785 -136.87890625 101.69921875 C-136.85529526 100.50770706 -136.83168427 99.31619537 -136.80735779 98.08857727 C-136.73086932 94.28809252 -136.64678079 90.48781915 -136.5625 86.6875 C-136.50926451 84.10873425 -136.45652422 81.52995824 -136.40429688 78.95117188 C-136.27527416 72.63398418 -136.14001344 66.31695313 -136 60 C-134.35 60 -132.7 60 -131 60 C-131 58.35 -131 56.7 -131 55 C-129.68 55.33 -128.36 55.66 -127 56 C-127.495 58.475 -127.495 58.475 -128 61 C-127.21625 60.79375 -126.4325 60.5875 -125.625 60.375 C-124.325625 60.189375 -124.325625 60.189375 -123 60 C-122.34 60.66 -121.68 61.32 -121 62 C-120.67 57.71 -120.34 53.42 -120 49 C-118.02 48.505 -118.02 48.505 -116 48 C-115.67 45.36 -115.34 42.72 -115 40 C-113.68 40 -112.36 40 -111 40 C-110.67 42.64 -110.34 45.28 -110 48 C-108.68 48.33 -107.36 48.66 -106 49 C-104.85193622 62.6332574 -104.85193622 62.6332574 -105 69 C-104.505 67.515 -104.505 67.515 -104 66 C-104.33 65.34 -104.66 64.68 -105 64 C-105.01664836 61.1533177 -104.97255417 58.33567251 -104.87890625 55.4921875 C-104.84348976 54.23125778 -104.84348976 54.23125778 -104.80735779 52.94485474 C-104.73066362 50.2547338 -104.64666417 47.5648966 -104.5625 44.875 C-104.50928506 43.05339939 -104.45654463 41.23178486 -104.40429688 39.41015625 C-104.27504071 34.93992382 -104.13923154 30.4699324 -104 26 C-102.35 26 -100.7 26 -99 26 C-99 23.36 -99 20.72 -99 18 C-98.01 17.67 -97.02 17.34 -96 17 C-95.34 17.33 -94.68 17.66 -94 18 C-93.875 23.75 -93.875 23.75 -95 26 C-93.02 26 -91.04 26 -89 26 C-88.505 32.93 -88.505 32.93 -88 40 C-86.02 40 -84.04 40 -82 40 C-82 37.36 -82 34.72 -82 32 C-81.34 31.67 -80.68 31.34 -80 31 C-79.34 31.33 -78.68 31.66 -78 32 C-78 34.31 -78 36.62 -78 39 C-76.35 39.33 -74.7 39.66 -73 40 C-73 43.96 -73 47.92 -73 52 C-72.34 52 -71.68 52 -71 52 C-71.16298584 51.28432861 -71.32597168 50.56865723 -71.49389648 49.83129883 C-71.99192071 47.04519803 -72.1141835 44.52537792 -72.09765625 41.69921875 C-72.09282227 40.23452148 -72.09282227 40.23452148 -72.08789062 38.74023438 C-72.07532227 37.22913086 -72.07532227 37.22913086 -72.0625 35.6875 C-72.05798828 34.66076172 -72.05347656 33.63402344 -72.04882812 32.57617188 C-72.03708184 30.05072118 -72.02065565 27.52539095 -72 25 C-70.02 25 -68.04 25 -66 25 C-66 22.03 -66 19.06 -66 16 C-64.68 16 -63.36 16 -62 16 C-62.33 18.97 -62.66 21.94 -63 25 C-61.02 25 -59.04 25 -57 25 C-57 33.58 -57 42.16 -57 51 C-56.34 51 -55.68 51 -55 51 C-55.08378906 50.18015625 -55.16757813 49.3603125 -55.25390625 48.515625 C-55.40666016 46.89914063 -55.40666016 46.89914063 -55.5625 45.25 C-55.71912109 43.64898437 -55.71912109 43.64898437 -55.87890625 42.015625 C-55.98560074 39.35858796 -55.81930395 37.50039428 -55 35 C-53.35 35 -51.7 35 -50 35 C-50 32.36 -50 29.72 -50 27 C-48.68 27 -47.36 27 -46 27 C-46 29.64 -46 32.28 -46 35 C-45.195625 34.979375 -44.39125 34.95875 -43.5625 34.9375 C-41 35 -41 35 -40 36 C-39.67 29.4 -39.34 22.8 -39 16 C-37.35 16 -35.7 16 -34 16 C-34 13.36 -34 10.72 -34 8 C-32.68 8 -31.36 8 -30 8 C-30 10.64 -30 13.28 -30 16 C-28.02 16 -26.04 16 -24 16 C-23.505 19.465 -23.505 19.465 -23 23 C-21.35 22.67 -19.7 22.34 -18 22 C-17.67 18.7 -17.34 15.4 -17 12 C-15.68 12.33 -14.36 12.66 -13 13 C-13 16.3 -13 19.6 -13 23 C-11.35 23 -9.7 23 -8 23 C-8 25.64 -8 28.28 -8 31 C-7.34 31 -6.68 31 -6 31 C-6 23.41 -6 15.82 -6 8 C-4.02 8 -2.04 8 0 8 C-0.185625 6.865625 -0.37125 5.73125 -0.5625 4.5625 C-0.7790625 2.7990625 -0.7790625 2.7990625 -1 1 C-0.67 0.67 -0.34 0.34 0 0 Z M-89 44 C-89 47.3 -89 50.6 -89 54 C-88.67 54 -88.34 54 -88 54 C-88 50.7 -88 47.4 -88 44 C-88.33 44 -88.66 44 -89 44 Z M-89 56 C-88 59 -88 59 -88 59 Z M-124 69 C-123 72 -123 72 -123 72 Z M-106 79 C-105 81 -105 81 -105 81 Z M-122 80 C-122 87.26 -122 94.52 -122 102 C-121.34 101.67 -120.68 101.34 -120 101 C-120 94.4 -120 87.8 -120 81 C-120.66 80.67 -121.32 80.34 -122 80 Z M-106 87 C-106 88.65 -106 90.3 -106 92 C-105.34 91.34 -104.68 90.68 -104 90 C-104 89.01 -104 88.02 -104 87 C-104.66 87 -105.32 87 -106 87 Z M-74 93 C-73.34 93.66 -72.68 94.32 -72 95 C-71.01 94.34 -70.02 93.68 -69 93 C-70.65 93 -72.3 93 -74 93 Z M-57 94 C-57 96.31 -57 98.62 -57 101 C-56.67 101 -56.34 101 -56 101 C-56 98.69 -56 96.38 -56 94 C-56.33 94 -56.66 94 -57 94 Z M-17 95 C-16.67 95.99 -16.34 96.98 -16 98 C-12.87802522 96.6910428 -12.87802522 96.6910428 -11 94 C-14.7763932 93.7018576 -14.7763932 93.7018576 -17 95 Z " fill="#EC611F" transform="translate(190,178)"/>
<path d="M0 0 C2.0625 0.4375 2.0625 0.4375 4 1 C4.125 6.75 4.125 6.75 3 9 C4.98 9 6.96 9 9 9 C9.495 15.93 9.495 15.93 10 23 C11.98 23 13.96 23 16 23 C16 20.36 16 17.72 16 15 C16.66 14.67 17.32 14.34 18 14 C18.66 14.33 19.32 14.66 20 15 C20 17.31 20 19.62 20 22 C21.65 22.33 23.3 22.66 25 23 C25 26.96 25 30.92 25 35 C25.66 35 26.32 35 27 35 C26.505 33.02 26.505 33.02 26 31 C26.99 30.505 26.99 30.505 28 30 C28.04125 30.928125 28.0825 31.85625 28.125 32.8125 C29.04126415 39.49986074 33.32392082 45.48588123 37 51 C36.75026532 55.66171397 36.30544143 57.8322853 33 61 C32.2730774 64.10839021 32.2730774 64.10839021 32 67 C31.34 67 30.68 67 30 67 C30 68.32 30 69.64 30 71 C30.66 71 31.32 71 32 71 C33.76462683 74.08809695 34 75.23312136 34 79 C34.66 79 35.32 79 36 79 C36.66 80.65 37.32 82.3 38 84 C38.66 84 39.32 84 40 84 C40 82.02 40 80.04 40 78 C38.35 78 36.7 78 35 78 C35 77.01 35 76.02 35 75 C37.97 75 40.94 75 44 75 C44 78.3 44 81.6 44 85 C47.96 85 51.92 85 56 85 C56.33 80.38 56.66 75.76 57 71 C55.515 70.505 55.515 70.505 54 70 C57.18762365 67.87491756 59.26512223 67.4979837 63 67 C62.67 67.598125 62.34 68.19625 62 68.8125 C60.79212012 71.05386471 60.79212012 71.05386471 61 74 C62.98 74.495 62.98 74.495 65 75 C65 77.97 65 80.94 65 84 C64.67 84 64.34 84 64 84 C64 81.36 64 78.72 64 76 C62.35 76 60.7 76 59 76 C58.93941406 77.21558594 58.87882812 78.43117188 58.81640625 79.68359375 C58.73201668 81.26824228 58.6473679 82.85287702 58.5625 84.4375 C58.52318359 85.23994141 58.48386719 86.04238281 58.44335938 86.86914062 C58.11328125 92.88671875 58.11328125 92.88671875 57 94 C55.33382885 94.04063832 53.66611905 94.042721 52 94 C52 96.64 52 99.28 52 102 C50.68 102 49.36 102 48 102 C48 99.36 48 96.72 48 94 C46.35 94 44.7 94 43 94 C42 87.25 42 87.25 42 85 C40.02 85 38.04 85 36 85 C36 87.97 36 90.94 36 94 C34.68 94 33.36 94 32 94 C32 91.03 32 88.06 32 85 C29.69 84.67 27.38 84.34 25 84 C25 87.96 25 91.92 25 96 C23.35 96 21.7 96 20 96 C20 98.31 20 100.62 20 103 C18.02 103.495 18.02 103.495 16 104 C16 101.03 16 98.06 16 95 C14.02 95 12.04 95 10 95 C9.67 96.65 9.34 98.3 9 100 C7.68942607 100.36122881 6.37646376 100.71380311 5.0625 101.0625 C4.33160156 101.25972656 3.60070312 101.45695312 2.84765625 101.66015625 C1.93306641 101.82837891 1.93306641 101.82837891 1 102 C0 101 0 101 -0.25 97.75 C0.00973337 93.85399939 0.73967531 92.10794645 3 89 C-0.96388638 88.92377142 -4.1273408 89.0318352 -8 90 C-8 96.6 -8 103.2 -8 110 C-9.65 110 -11.3 110 -13 110 C-13 112.97 -13 115.94 -13 119 C-14.32 119 -15.64 119 -17 119 C-17 116.03 -17 113.06 -17 110 C-18.65 110 -20.3 110 -22 110 C-22.33 104.06 -22.66 98.12 -23 92 C-23.33 95.3 -23.66 98.6 -24 102 C-26.475 102.495 -26.475 102.495 -29 103 C-29 104.65 -29 106.3 -29 108 C-30.98 108.495 -30.98 108.495 -33 109 C-33 106.69 -33 104.38 -33 102 C-34.65 102 -36.3 102 -38 102 C-38.83140715 98.40736145 -39.09935651 95.15835865 -39.02172852 91.4753418 C-39.00163223 90.39459885 -38.98153595 89.3138559 -38.96083069 88.20036316 C-38.93379562 87.0449855 -38.90676056 85.88960785 -38.87890625 84.69921875 C-38.85529526 83.50770706 -38.83168427 82.31619537 -38.80735779 81.08857727 C-38.73086932 77.28809252 -38.64678079 73.48781915 -38.5625 69.6875 C-38.50926451 67.10873425 -38.45652422 64.52995824 -38.40429688 61.95117188 C-38.27527416 55.63398418 -38.14001344 49.31695313 -38 43 C-36.35 43 -34.7 43 -33 43 C-33 41.35 -33 39.7 -33 38 C-31.68 38.33 -30.36 38.66 -29 39 C-29.495 41.475 -29.495 41.475 -30 44 C-29.21625 43.79375 -28.4325 43.5875 -27.625 43.375 C-26.325625 43.189375 -26.325625 43.189375 -25 43 C-24.34 43.66 -23.68 44.32 -23 45 C-22.67 40.71 -22.34 36.42 -22 32 C-20.68 31.67 -19.36 31.34 -18 31 C-17.67 28.36 -17.34 25.72 -17 23 C-15.68 23 -14.36 23 -13 23 C-12.67 25.64 -12.34 28.28 -12 31 C-10.68 31.33 -9.36 31.66 -8 32 C-6.85193622 45.6332574 -6.85193622 45.6332574 -7 52 C-6.67 51.01 -6.34 50.02 -6 49 C-6.33 48.34 -6.66 47.68 -7 47 C-7.01664836 44.1533177 -6.97255417 41.33567251 -6.87890625 38.4921875 C-6.84348976 37.23125778 -6.84348976 37.23125778 -6.80735779 35.94485474 C-6.73066362 33.2547338 -6.64666417 30.5648966 -6.5625 27.875 C-6.50928506 26.05339939 -6.45654463 24.23178486 -6.40429688 22.41015625 C-6.27504071 17.93992382 -6.13923154 13.4699324 -6 9 C-4.35 9 -2.7 9 -1 9 C-1.020625 7.700625 -1.04125 6.40125 -1.0625 5.0625 C-1.08399454 3.70834367 -1.07148199 2.35243917 -1 1 C-0.67 0.67 -0.34 0.34 0 0 Z M9 27 C9 30.3 9 33.6 9 37 C9.33 37 9.66 37 10 37 C10 33.7 10 30.4 10 27 C9.67 27 9.34 27 9 27 Z M9 39 C10 42 10 42 10 42 Z M-26 52 C-25 55 -25 55 -25 55 Z M-8 62 C-7 64 -7 64 -7 64 Z M-24 63 C-24 70.26 -24 77.52 -24 85 C-23.34 84.67 -22.68 84.34 -22 84 C-22 77.4 -22 70.8 -22 64 C-22.66 63.67 -23.32 63.34 -24 63 Z M-8 70 C-8 71.65 -8 73.3 -8 75 C-7.34 74.34 -6.68 73.68 -6 73 C-6 72.01 -6 71.02 -6 70 C-6.66 70 -7.32 70 -8 70 Z M24 76 C24.66 76.66 25.32 77.32 26 78 C26.99 77.34 27.98 76.68 29 76 C27.35 76 25.7 76 24 76 Z M41 77 C41 79.31 41 81.62 41 84 C41.33 84 41.66 84 42 84 C42 81.69 42 79.38 42 77 C41.67 77 41.34 77 41 77 Z " fill="#941E1D" transform="translate(92,195)"/>
<path d="M0 0 C2 1.375 2 1.375 4 3 C4 3.66 4 4.32 4 5 C4.99 5 5.98 5 7 5 C7.28571429 12.42857143 7.28571429 12.42857143 5 16 C4.34 16 3.68 16 3 16 C2.62875 17.6396875 2.62875 17.6396875 2.25 19.3125 C1 23 1 23 -0.94921875 24.421875 C-3.48553703 26.3736323 -4.02166644 27.94116096 -5.0625 30.9375 C-6.31222269 34.49357787 -7.69526912 37.03099832 -10 40 C-10.98723691 41.71282907 -11.94387641 43.44353068 -12.875 45.1875 C-15.18693621 49.48931166 -17.53327771 53.76767858 -19.921875 58.02734375 C-21.04977296 59.9932278 -21.04977296 59.9932278 -21.85546875 62.17578125 C-23 64 -23 64 -25.06640625 64.828125 C-30.80051262 65.79726974 -36.18292724 66.18764751 -42 66 C-42.33773437 66.67546875 -42.67546875 67.3509375 -43.0234375 68.046875 C-45.015625 72.03125 -47.0078125 76.015625 -49 80 C-53.14335603 77.92832199 -56.14380375 73.06850952 -57.8828125 68.8671875 C-58.33244629 67.50794972 -58.78167158 66.14857674 -59.23046875 64.7890625 C-59.98573985 62.71892093 -59.98573985 62.71892093 -62.375 60.6875 C-66.83414621 56.12218364 -69.87431411 50.07750876 -70.13671875 43.65234375 C-70.09160156 42.77707031 -70.04648438 41.90179688 -70 41 C-70.66 41 -71.32 41 -72 41 C-72 33.74 -72 26.48 -72 19 C-70.02 19 -68.04 19 -66 19 C-66 16.03 -66 13.06 -66 10 C-64.68 10 -63.36 10 -62 10 C-62.33 12.97 -62.66 15.94 -63 19 C-61.02 19 -59.04 19 -57 19 C-57 27.58 -57 36.16 -57 45 C-56.34 45 -55.68 45 -55 45 C-55.12568359 43.77023438 -55.12568359 43.77023438 -55.25390625 42.515625 C-55.35574219 41.43796875 -55.45757812 40.3603125 -55.5625 39.25 C-55.66691406 38.18265625 -55.77132812 37.1153125 -55.87890625 36.015625 C-55.98560074 33.35858796 -55.81930395 31.50039428 -55 29 C-53.35 29 -51.7 29 -50 29 C-50 26.36 -50 23.72 -50 21 C-48.68 21 -47.36 21 -46 21 C-46 23.64 -46 26.28 -46 29 C-44.7934375 28.9690625 -44.7934375 28.9690625 -43.5625 28.9375 C-41 29 -41 29 -40 30 C-39.67 23.4 -39.34 16.8 -39 10 C-37.35 10 -35.7 10 -34 10 C-34 7.36 -34 4.72 -34 2 C-32.68 2 -31.36 2 -30 2 C-30 4.64 -30 7.28 -30 10 C-28.02 10 -26.04 10 -24 10 C-23.505 13.465 -23.505 13.465 -23 17 C-21.35 16.67 -19.7 16.34 -18 16 C-17.67 12.7 -17.34 9.4 -17 6 C-15.68 6.33 -14.36 6.66 -13 7 C-13 10.3 -13 13.6 -13 17 C-11.35 17 -9.7 17 -8 17 C-8 19.64 -8 22.28 -8 25 C-7.34 25 -6.68 25 -6 25 C-6 17.41 -6 9.82 -6 2 C-4.02 2 -2.04 2 0 2 C0 1.34 0 0.68 0 0 Z " fill="#F1741E" transform="translate(190,184)"/>
<path d="M0 0 C0 0.66 0 1.32 0 2 C0.66 2 1.32 2 2 2 C2.02688151 3.64574566 2.04634123 5.29161413 2.0625 6.9375 C2.07410156 7.85402344 2.08570313 8.77054688 2.09765625 9.71484375 C2 12 2 12 1 13 C-2.05395784 13.44168812 -4.95146823 13.4865229 -8 13 C-11.0625 10.5 -11.0625 10.5 -13 8 C-18.00110262 8.85742775 -18.00110262 8.85742775 -21.5 12.1875 C-22.24684352 16.38849482 -22.14329423 20.19479859 -19.8125 23.875 C-17.30025086 25.43432705 -14.90849054 25.67683438 -12 26 C-12.99 25.34 -13.98 24.68 -15 24 C-15.40843923 21.28796348 -15.13336867 18.7562858 -15 16 C-8.34362157 14.76160401 -1.7528064 14.90860864 5 15 C4.979375 13.865625 4.95875 12.73125 4.9375 11.5625 C5 8 5 8 6 7 C7.97712807 6.90099801 9.95790038 6.87029227 11.9375 6.875 C13.55978516 6.87113281 13.55978516 6.87113281 15.21484375 6.8671875 C18 7 18 7 20 8 C20.66 7.67 21.32 7.34 22 7 C24.6723621 6.86584528 27.32250488 6.95681459 30 7 C30.33 3.37 30.66 -0.26 31 -4 C34.96 -4 38.92 -4 43 -4 C43 6.56 43 17.12 43 28 C44.485 28.495 44.485 28.495 46 29 C45.67 31.64 45.34 34.28 45 37 C42.35409986 37.02684679 39.70846904 37.04676357 37.0625 37.0625 C36.30775391 37.07087891 35.55300781 37.07925781 34.77539062 37.08789062 C32.85005687 37.09652441 30.92464419 37.05224333 29 37 C28 36 28 36 27.9375 32.4375 C27.958125 31.303125 27.97875 30.16875 28 29 C29.485 28.505 29.485 28.505 31 28 C31 24.37 31 20.74 31 17 C29.55625 17.12375 28.1125 17.2475 26.625 17.375 C25.40683594 17.47941406 25.40683594 17.47941406 24.1640625 17.5859375 C21.79665809 17.82892588 21.79665809 17.82892588 20 20 C19.54188325 21.97235333 19.54188325 21.97235333 19.375 24.125 C19.189375 26.043125 19.189375 26.043125 19 28 C20.32 28 21.64 28 23 28 C23 30.97 23 33.94 23 37 C17.06 37 11.12 37 5 37 C5 34.03 5 31.06 5 28 C5.99 28 6.98 28 8 28 C8 24.37 8 20.74 8 17 C7.01 17 6.02 17 5 17 C4.67 19.31 4.34 21.62 4 24 C3.34 24 2.68 24 2 24 C2.05800781 24.61488281 2.11601562 25.22976563 2.17578125 25.86328125 C2.31270114 28.31610326 2.33792703 30.56519242 2 33 C-2.65702657 37.37478253 -9.77296138 38.34907122 -16 38.203125 C-19.16368909 37.88181283 -21.98705424 37.00431525 -25 36 C-25 35.34 -25 34.68 -25 34 C-25.556875 33.95875 -26.11375 33.9175 -26.6875 33.875 C-30.23222364 32.53375322 -31.78684295 29.99075278 -34 27 C-36.00447619 20.98657144 -36.31515248 13.30260306 -33.953125 7.37109375 C-32.20358221 4.57697099 -30.32877285 2.32877285 -28 0 C-27.01 0 -26.02 0 -25 0 C-25 -0.66 -25 -1.32 -25 -2 C-15.73830492 -4.86270575 -8.85196095 -3.70172912 0 0 Z M33 6 C33.33 6.66 33.66 7.32 34 8 C35.65 8 37.3 8 39 8 C39.33 7.34 39.66 6.68 40 6 C37.69 6 35.38 6 33 6 Z " fill="#E5E5E5" transform="translate(381,233)"/>
<path d="M0 0 C4.62 0 9.24 0 14 0 C14 10.56 14 21.12 14 32 C16.31 32 18.62 32 21 32 C21 24.41 21 16.82 21 9 C20.01 9 19.02 9 18 9 C18 6.03 18 3.06 18 0 C22.62 0 27.24 0 32 0 C32 10.56 32 21.12 32 32 C33.98 32.495 33.98 32.495 36 33 C36.04241723 35.33294775 36.04092937 37.66702567 36 40 C35 41 35 41 32.91235352 41.11352539 C31.99381592 41.10828857 31.07527832 41.10305176 30.12890625 41.09765625 C29.09113037 41.09435303 28.05335449 41.0910498 26.98413086 41.08764648 C25.29042358 41.07519897 25.29042358 41.07519897 23.5625 41.0625 C22.41209229 41.05871338 21.26168457 41.05492676 20.07641602 41.05102539 C15.13000266 41.03458767 10.18367008 41.00645136 5.23730469 40.97949219 C1.63737361 40.96150673 -1.96254437 40.94934942 -5.5625 40.9375 C-6.69163818 40.92920166 -7.82077637 40.92090332 -8.98413086 40.91235352 C-10.02190674 40.90905029 -11.05968262 40.90574707 -12.12890625 40.90234375 C-13.04744385 40.89710693 -13.96598145 40.89187012 -14.91235352 40.88647461 C-16.98895952 40.76640348 -16.98895952 40.76640348 -18 42 C-23.26253509 42.61192269 -25.8959153 41.24509023 -30 38 C-31.53266582 34.93466836 -31.10276471 31.73245728 -31.0625 28.375 C-31.05798828 27.66859375 -31.05347656 26.9621875 -31.04882812 26.234375 C-31.03703875 24.48954725 -31.01910324 22.744763 -31 21 C-31.99 21 -32.98 21 -34 21 C-34 18.03 -34 15.06 -34 12 C-29.58300512 10.89575128 -25.52642225 10.84911926 -21 11 C-19.45049732 12.54950268 -19.78344807 14.09990594 -19.68359375 16.25390625 C-19.62075195 17.53491211 -19.62075195 17.53491211 -19.55664062 18.84179688 C-19.49766602 20.18854492 -19.49766602 20.18854492 -19.4375 21.5625 C-19.39431641 22.46419922 -19.35113281 23.36589844 -19.30664062 24.29492188 C-19.20021858 26.52978485 -19.09820012 28.76476308 -19 31 C-18.01 31 -17.02 31 -16 31 C-15.67 27.37 -15.34 23.74 -15 20 C-15.99 20 -16.98 20 -18 20 C-18.33 17.36 -18.66 14.72 -19 12 C-14.09931037 10.36643679 -9.14261524 10.94470306 -4 11 C-4 17.93 -4 24.86 -4 32 C-1.69 32 0.62 32 3 32 C3 24.41 3 16.82 3 9 C1.68 8.67 0.36 8.34 -1 8 C-0.67 5.36 -0.34 2.72 0 0 Z M17 34 C17 35.65 17 37.3 17 39 C17.33 39 17.66 39 18 39 C18 37.35 18 35.7 18 34 C17.67 34 17.34 34 17 34 Z " fill="#DEDEDE" transform="translate(310,229)"/>
<path d="M0 0 C0.99 0.33 1.98 0.66 3 1 C3 3.31 3 5.62 3 8 C5.475 8.495 5.475 8.495 8 9 C8 12.96 8 16.92 8 21 C8.66 21 9.32 21 10 21 C9.67 19.68 9.34 18.36 9 17 C9.66 16.67 10.32 16.34 11 16 C11.04125 16.928125 11.0825 17.85625 11.125 18.8125 C12.04126415 25.49986074 16.32392082 31.48588123 20 37 C19.75026532 41.66171397 19.30544143 43.8322853 16 47 C15.2730774 50.10839021 15.2730774 50.10839021 15 53 C14.34 53 13.68 53 13 53 C13 54.32 13 55.64 13 57 C13.66 57 14.32 57 15 57 C17.39073445 60.82517513 17.55966552 64.59665524 18 69 C15 70 15 70 12 69 C12.33 66.69 12.66 64.38 13 62 C7.62762797 62.0288838 7.62762797 62.0288838 3.0859375 64.5546875 C1.90759044 65.80570794 0.74328221 67.07010796 -0.40625 68.34765625 C-3.38025684 71.43100158 -6.99196395 72.00431947 -11 73 C-11.81721717 71.89932004 -12.62859451 70.79430269 -13.4375 69.6875 C-14.11619141 68.76517578 -14.11619141 68.76517578 -14.80859375 67.82421875 C-16 66 -16 66 -17 63 C-17.66 62.34 -18.32 61.68 -19 61 C-18.67 60.01 -18.34 59.02 -18 58 C-17.93062938 55.77181559 -17.91542916 53.54165476 -17.9375 51.3125 C-17.94652344 50.13300781 -17.95554687 48.95351563 -17.96484375 47.73828125 C-17.97644531 46.83464844 -17.98804687 45.93101562 -18 45 C-17.01 45 -16.02 45 -15 45 C-15.33 43.02 -15.66 41.04 -16 39 C-15.360625 38.773125 -14.72125 38.54625 -14.0625 38.3125 C-13.381875 37.879375 -12.70125 37.44625 -12 37 C-11.835 36.175 -11.67 35.35 -11.5 34.5 C-11.335 33.675 -11.17 32.85 -11 32 C-9 30.875 -9 30.875 -7 30 C-6.67 29.01 -6.34 28.02 -6 27 C-4.02 26.67 -2.04 26.34 0 26 C0.33 25.01 0.66 24.02 1 23 C0.21625 22.855625 -0.5675 22.71125 -1.375 22.5625 C-4 22 -4 22 -6 21 C-6 17.7 -6 14.4 -6 11 C-4.35 11 -2.7 11 -1 11 C-1.01160156 10.28972656 -1.02320312 9.57945312 -1.03515625 8.84765625 C-1.04417969 7.92855469 -1.05320312 7.00945312 -1.0625 6.0625 C-1.07410156 5.14597656 -1.08570312 4.22945312 -1.09765625 3.28515625 C-1 1 -1 1 0 0 Z " fill="#CB2223" transform="translate(109,209)"/>
<path d="M0 0 C0.99 0 1.98 0 3 0 C3 2.97 3 5.94 3 9 C4.98 9 6.96 9 9 9 C9.33 17.25 9.66 25.5 10 34 C12.64 35.32 15.28 36.64 18 38 C18 38.66 18 39.32 18 40 C21.50538557 41.96301592 25.13351728 42.95902388 29 44 C29 44.99 29 45.98 29 47 C26.59454362 48.20272819 25.05003047 48.10071472 22.375 48.0625 C21.14910156 48.04896484 21.14910156 48.04896484 19.8984375 48.03515625 C19.27195313 48.02355469 18.64546875 48.01195312 18 48 C18 52.47731299 19.16606583 54.96534483 21 59 C21.33 59.99 21.66 60.98 22 62 C19.75 62.3125 19.75 62.3125 17 62 C14.08637647 59.00068166 12.12823524 55.57711855 10 52 C9.97494385 53.08531006 9.9498877 54.17062012 9.92407227 55.28881836 C9.83016245 59.301316 9.72990233 63.31363382 9.62768555 67.32592773 C9.58427427 69.06514288 9.54260388 70.80440235 9.50268555 72.54370117 C9.44513232 75.03838488 9.3813958 77.5328441 9.31640625 80.02734375 C9.29133751 81.2007859 9.29133751 81.2007859 9.26576233 82.39793396 C9.11387171 87.88612829 9.11387171 87.88612829 8 89 C6.33382885 89.04063832 4.66611905 89.042721 3 89 C3 91.64 3 94.28 3 97 C1.68 97 0.36 97 -1 97 C-1 94.03 -1 91.06 -1 88 C-2.65 88 -4.3 88 -6 88 C-6.82351864 81.61773055 -7.12086218 75.43255401 -7 69 C-7.99 68.67 -8.98 68.34 -10 68 C-7.69 68 -5.38 68 -3 68 C-3.020625 66.88625 -3.04125 65.7725 -3.0625 64.625 C-3 61 -3 61 -2 59 C-1.34 59 -0.68 59 0 59 C0.2475 58.0925 0.495 57.185 0.75 56.25 C2.05777592 52.84978261 3.20929526 51.28330388 6 49 C7.485 48.505 7.485 48.505 9 48 C4.46859347 47.06619039 4.46859347 47.06619039 0 48 C-2.00875442 47.72428861 -4.01178687 47.39764263 -6 47 C-5.01 44.69 -4.02 42.38 -3 40 C-2.34 40 -1.68 40 -1 40 C0.3071389 38.35028136 0.3071389 38.35028136 1 36 C-0.00579575 33.01540302 -0.00579575 33.01540302 -1.75 30 C-2.30171875 28.96875 -2.8534375 27.9375 -3.421875 26.875 C-4.33050094 25.21968145 -5.25594897 23.57287497 -6.2265625 21.953125 C-7.2527981 19.36162096 -6.98631935 17.49602703 -6.625 14.75 C-6.51414063 13.85796875 -6.40328125 12.9659375 -6.2890625 12.046875 C-6.19367188 11.37140625 -6.09828125 10.6959375 -6 10 C-4.35 9.67 -2.7 9.34 -1 9 C-1.020625 7.700625 -1.04125 6.40125 -1.0625 5.0625 C-1.08399454 3.70834367 -1.07148199 2.35243917 -1 1 C-0.67 0.67 -0.34 0.34 0 0 Z " fill="#E94F1E" transform="translate(206,202)"/>
<path d="M0 0 C4.05671683 -0.07431978 8.11316846 -0.12868133 12.17041016 -0.16479492 C13.54971218 -0.17985422 14.92896653 -0.20030613 16.30810547 -0.22631836 C18.29373403 -0.26282415 20.27971618 -0.27814853 22.265625 -0.29296875 C23.45961914 -0.3086792 24.65361328 -0.32438965 25.88378906 -0.34057617 C29.27168614 0.02969306 30.57686177 0.66789009 33 3 C35.26092768 6.27834514 35.3265243 9.0817084 35 13 C34 15.375 34 15.375 33 17 C32.34 17 31.68 17 31 17 C31 17.66 31 18.32 31 19 C31.639375 19.268125 32.27875 19.53625 32.9375 19.8125 C35 21 35 21 36 24 C36.13156527 27.68382769 36.16982138 30.49053585 35 34 C34.34 34 33.68 34 33 34 C33 34.66 33 35.32 33 36 C29.43108308 38.37927794 27.64366478 38.31474546 23.3984375 38.44921875 C22.10421875 38.49240234 20.81 38.53558594 19.4765625 38.58007812 C18.80399414 38.59756104 18.13142578 38.61504395 17.43847656 38.63305664 C15.37513974 38.68749631 13.3127753 38.75763542 11.25 38.83007812 C3.83941366 39.05564986 3.83941366 39.05564986 1 39 C0 38 0 38 -0.09765625 36.15234375 C-0.06510417 34.1015625 -0.03255208 32.05078125 0 30 C1.32 30 2.64 30 4 30 C4 22.74 4 15.48 4 8 C2.68 8 1.36 8 0 8 C0 5.36 0 2.72 0 0 Z M16 8 C16 10.31 16 12.62 16 15 C18.43717258 14.72965366 18.43717258 14.72965366 21 14 C21.66 13.01 22.32 12.02 23 11 C22.34 10.01 21.68 9.02 21 8 C18.41619823 7.74969023 18.41619823 7.74969023 16 8 Z M16 23 C16 25.31 16 27.62 16 30 C18.91652174 30.16681109 18.91652174 30.16681109 22 30 C22.66 29.34 23.32 28.68 24 28 C23.59471099 25.21762345 23.59471099 25.21762345 22 23 C20.00041636 22.95919217 17.99954746 22.95745644 16 23 Z " fill="#E4E5E5" transform="translate(240,231)"/>
<path d="M0 0 C0.33 0 0.66 0 1 0 C1 4.29 1 8.58 1 13 C1.66 13 2.32 13 3 13 C3 11.02 3 9.04 3 7 C3.33 7 3.66 7 4 7 C4 10.66666667 4 14.33333333 4 18 C5.14236379 20.42053572 5.14236379 20.42053572 6.75 22.75 C7.26046875 23.54921875 7.7709375 24.3484375 8.296875 25.171875 C8.85890625 25.77515625 9.4209375 26.3784375 10 27 C14.85621766 27 18.06884715 25.92159269 21.578125 22.4296875 C22.08859375 21.87539063 22.5990625 21.32109375 23.125 20.75 C24.07375 19.8425 25.0225 18.935 26 18 C28.0390625 18.35546875 28.0390625 18.35546875 30 19 C32.18703385 18.62092718 32.18703385 18.62092718 34 18 C33.67 20.31 33.34 22.62 33 25 C34.65 25 36.3 25 38 25 C38.495 23.515 38.495 23.515 39 22 C38.34 21.67 37.68 21.34 37 21 C37.99 21 38.98 21 40 21 C40.66 22.65 41.32 24.3 42 26 C42.66 26 43.32 26 44 26 C44 24.02 44 22.04 44 20 C42.35 20 40.7 20 39 20 C39 19.01 39 18.02 39 17 C41.97 17 44.94 17 48 17 C48 20.3 48 23.6 48 27 C51.96 27 55.92 27 60 27 C60.33 22.38 60.66 17.76 61 13 C60.01 12.67 59.02 12.34 58 12 C61.18762365 9.87491756 63.26512223 9.4979837 67 9 C66.67 9.598125 66.34 10.19625 66 10.8125 C64.79212012 13.05386471 64.79212012 13.05386471 65 16 C66.98 16.495 66.98 16.495 69 17 C69 19.97 69 22.94 69 26 C68.67 26 68.34 26 68 26 C68 23.36 68 20.72 68 18 C66.35 18 64.7 18 63 18 C62.93941406 19.21558594 62.87882812 20.43117188 62.81640625 21.68359375 C62.73201668 23.26824228 62.6473679 24.85287702 62.5625 26.4375 C62.52318359 27.23994141 62.48386719 28.04238281 62.44335938 28.86914062 C62.11328125 34.88671875 62.11328125 34.88671875 61 36 C59.33382885 36.04063832 57.66611905 36.042721 56 36 C56 38.64 56 41.28 56 44 C54.68 44 53.36 44 52 44 C52 41.36 52 38.72 52 36 C50.35 36 48.7 36 47 36 C46 29.25 46 29.25 46 27 C44.02 27 42.04 27 40 27 C40 29.97 40 32.94 40 36 C38.68 36 37.36 36 36 36 C36 33.03 36 30.06 36 27 C33.69 26.67 31.38 26.34 29 26 C29 29.96 29 33.92 29 38 C27.35 38 25.7 38 24 38 C24 40.31 24 42.62 24 45 C22.02 45.495 22.02 45.495 20 46 C20 43.03 20 40.06 20 37 C18.02 37 16.04 37 14 37 C13.67 38.65 13.34 40.3 13 42 C11.68942607 42.36122881 10.37646376 42.71380311 9.0625 43.0625 C8.33160156 43.25972656 7.60070312 43.45695312 6.84765625 43.66015625 C6.23792969 43.77230469 5.62820312 43.88445312 5 44 C4 43 4 43 3.75 39.75 C4.01022858 35.84657127 4.603994 34.04108454 7 31 C7.66 31 8.32 31 9 31 C9 30.34 9 29.68 9 29 C7.08268082 29.11455681 5.1661325 29.24206258 3.25 29.375 C2.18265625 29.44460938 1.1153125 29.51421875 0.015625 29.5859375 C-2.87067944 29.98224355 -4.6074209 30.37646419 -7 32 C-8.31210005 33.69727225 -8.31210005 33.69727225 -9.25 35.625 C-9.8275 36.73875 -10.405 37.8525 -11 39 C-11.66 39 -12.32 39 -13 39 C-12.67 39.99 -12.34 40.98 -12 42 C-10.68 42 -9.36 42 -8 42 C-7.34 43.65 -6.68 45.3 -6 47 C-8.64 47 -11.28 47 -14 47 C-15.61789334 42.14631998 -17.29791084 37.10381482 -16 32 C-14.44279003 29.73457947 -12.7262718 27.85074768 -10.8046875 25.88671875 C-8.78157171 23.89226327 -8.78157171 23.89226327 -6.875 20.6875 C-4.86256771 17.80301372 -3.11694696 16.55847348 0 15 C-0.33 14.67 -0.66 14.34 -1 14 C-1.0989294 11.83519203 -1.129711 9.66706215 -1.125 7.5 C-1.12886719 5.72109375 -1.12886719 5.72109375 -1.1328125 3.90625 C-1 1 -1 1 0 0 Z M45 19 C45 21.31 45 23.62 45 26 C45.33 26 45.66 26 46 26 C46 23.69 46 21.38 46 19 C45.67 19 45.34 19 45 19 Z " fill="#A01F20" transform="translate(88,253)"/>
<path d="M0 0 C2 1 2 1 2.74609375 2.70703125 C2.97425781 3.40183594 3.20242187 4.09664062 3.4375 4.8125 C4.56086518 8.01638333 5.85428816 10.34340439 8 13 C8 13.66 8 14.32 8 15 C8.99 15.33 9.98 15.66 11 16 C11.33 16.66 11.66 17.32 12 18 C12.16822266 17.17242187 12.16822266 17.17242187 12.33984375 16.328125 C13.11360773 13.59934789 14.26817694 11.27227057 15.5625 8.75 C16.01753906 7.85796875 16.47257812 6.9659375 16.94140625 6.046875 C17.29074219 5.37140625 17.64007813 4.6959375 18 4 C19.32 4 20.64 4 22 4 C22.33 6.64 22.66 9.28 23 12 C23.66 12 24.32 12 25 12 C25 12.66 25 13.32 25 14 C26.216875 13.95875 27.43375 13.9175 28.6875 13.875 C32.2298845 13.89380912 34.91389924 14.09387894 38 16 C39.3125 18.625 39.3125 18.625 40 21 C38.35 21.33 36.7 21.66 35 22 C35 23.65 35 25.3 35 27 C40.57830016 27.12469099 40.57830016 27.12469099 46 26 C45.01 26.495 45.01 26.495 44 27 C44.495 28.485 44.495 28.485 45 30 C44.01 30.495 44.01 30.495 43 31 C43 30.34 43 29.68 43 29 C42.01 29 41.02 29 40 29 C40 31.31 40 33.62 40 36 C41.32 36 42.64 36 44 36 C43.505 36.99 43.505 36.99 43 38 C42.34 38 41.68 38 41 38 C40.67 40.31 40.34 42.62 40 45 C41.65 45.33 43.3 45.66 45 46 C45.495 49.465 45.495 49.465 46 53 C46.33 51.35 46.66 49.7 47 48 C47.33 48 47.66 48 48 48 C48 50.97 48 53.94 48 57 C46.02 57.495 46.02 57.495 44 58 C43 57 43 57 42.90234375 54.93359375 C42.91394531 54.10988281 42.92554688 53.28617187 42.9375 52.4375 C42.94652344 51.61121094 42.95554688 50.78492188 42.96484375 49.93359375 C42.97644531 49.29550781 42.98804688 48.65742188 43 48 C41.35 47.67 39.7 47.34 38 47 C38.01160156 46.25234375 38.02320313 45.5046875 38.03515625 44.734375 C38.04417969 43.74953125 38.05320313 42.7646875 38.0625 41.75 C38.07410156 40.77546875 38.08570313 39.8009375 38.09765625 38.796875 C38.01153986 36.33050152 37.6623822 34.35745475 37 32 C37 31.34 37 30.68 37 30 C35.68 29.67 34.36 29.34 33 29 C33 27.68 33 26.36 33 25 C32.34 25 31.68 25 31 25 C31 27.64 31 30.28 31 33 C30.01 33 29.02 33 28 33 C28 30.03 28 27.06 28 24 C26.35 23.67 24.7 23.34 23 23 C23.33 21.35 23.66 19.7 24 18 C22.68 18 21.36 18 20 18 C19.01 18 18.02 18 17 18 C17 18.66 17 19.32 17 20 C17.99 20 18.98 20 20 20 C20.02694851 21.95825873 20.04637218 23.91662226 20.0625 25.875 C20.07410156 26.96554687 20.08570313 28.05609375 20.09765625 29.1796875 C20 32 20 32 19 34 C15.04 34 11.08 34 7 34 C7 30.7 7 27.4 7 24 C4.03 24 1.06 24 -2 24 C-2 24.99 -2 25.98 -2 27 C-0.35 27 1.3 27 3 27 C3 28.98 3 30.96 3 33 C2.34 33 1.68 33 1 33 C0.34 31.35 -0.32 29.7 -1 28 C-1.66 28 -2.32 28 -3 28 C-4.25664978 25.09399739 -5 23.20395416 -5 20 C-5.66 20 -6.32 20 -7 20 C-7 18.68 -7 17.36 -7 16 C-6.34 16 -5.68 16 -5 16 C-5 14.02 -5 12.04 -5 10 C-4.01 9.67 -3.02 9.34 -2 9 C-1.19436362 6.89415562 -1.19436362 6.89415562 -0.8125 4.4375 C-0.65394531 3.61121094 -0.49539062 2.78492188 -0.33203125 1.93359375 C-0.22246094 1.29550781 -0.11289063 0.65742188 0 0 Z " fill="#EA541D" transform="translate(129,246)"/>
<path d="M0 0 C0.66 0.33 1.32 0.66 2 1 C2 2.32 2 3.64 2 5 C3.65 5 5.3 5 7 5 C6.91621094 6.05960938 6.83242187 7.11921875 6.74609375 8.2109375 C6.64293168 9.59893625 6.54008337 10.98695835 6.4375 12.375 C6.38142578 13.07367188 6.32535156 13.77234375 6.26757812 14.4921875 C5.88500096 18.36528865 5.88500096 18.36528865 7 22 C7.27408656 26.51536843 7.231754 31.03977329 7.25 35.5625 C7.270625 36.81353516 7.29125 38.06457031 7.3125 39.35351562 C7.34295147 46.58954517 6.76636562 52.29520333 4 59 C0.846632 59.70074844 -1.72724974 60 -5 60 C-5 41.85 -5 23.7 -5 5 C-3.35 5 -1.7 5 0 5 C0 3.35 0 1.7 0 0 Z " fill="#A81F21" transform="translate(60,235)"/>
<path d="M0 0 C4.62 0 9.24 0 14 0 C14 10.56 14 21.12 14 32 C15.32 32.33 16.64 32.66 18 33 C18.04241723 35.33294775 18.04092937 37.66702567 18 40 C17 41 17 41 13.18359375 41.09765625 C11.60153318 41.09098089 10.01948841 41.07901875 8.4375 41.0625 C7.63119141 41.05798828 6.82488281 41.05347656 5.99414062 41.04882812 C3.99606244 41.03700518 1.99802217 41.01906914 0 41 C-0.144375 40.05125 -0.28875 39.1025 -0.4375 38.125 C-0.82935399 35.1065506 -0.82935399 35.1065506 -2 33 C-2.99 33 -3.98 33 -5 33 C-5 23.76 -5 14.52 -5 5 C-4.67 5 -4.34 5 -4 5 C-4 13.91 -4 22.82 -4 32 C-1.69 32 0.62 32 3 32 C3 24.41 3 16.82 3 9 C2.01 9 1.02 9 0 9 C0 6.03 0 3.06 0 0 Z " fill="#E2E2E1" transform="translate(328,229)"/>
<path d="M0 0 C1.32 0.33 2.64 0.66 4 1 C3.67 1.99 3.34 2.98 3 4 C2.67 3.67 2.34 3.34 2 3 C1.67 4.32 1.34 5.64 1 7 C-0.65 7 -2.3 7 -4 7 C-4 25.15 -4 43.3 -4 62 C-1.03 61.34 1.94 60.68 5 60 C7.53257158 52.26269471 7.22512539 44.54403612 7.125 36.5 C7.11495069 35.09115219 7.10582829 33.68229745 7.09765625 32.2734375 C7.07419969 28.8487795 7.04137384 25.42448061 7 22 C8.9375 22.375 8.9375 22.375 11 23 C11.33 23.66 11.66 24.32 12 25 C14.12576782 25.46651207 14.12576782 25.46651207 16.5625 25.625 C17.38878906 25.69976562 18.21507813 25.77453125 19.06640625 25.8515625 C19.70449219 25.90054687 20.34257813 25.94953125 21 26 C20.67 26.66 20.34 27.32 20 28 C17.36 28 14.72 28 12 28 C12.33 35.26 12.66 42.52 13 50 C18.61698383 43.78076374 18.61698383 43.78076374 21.1875 39.5625 C22.0846875 38.2940625 22.0846875 38.2940625 23 37 C23.99 37 24.98 37 26 37 C25.1283774 38.18998121 24.25245401 39.37681214 23.375 40.5625 C22.56289062 41.66271484 22.56289062 41.66271484 21.734375 42.78515625 C20.13309789 44.8300304 18.43085947 46.63824488 16.625 48.5 C14.42022237 51.03290381 13.60791289 52.62647075 13.5625 56 C13.66956485 57.33700496 13.81576449 58.67142843 14 60 C14.08121094 60.680625 14.16242188 61.36125 14.24609375 62.0625 C14.4624276 63.71329368 14.72629074 65.35774444 15 67 C17.64 67 20.28 67 23 67 C22.01 65.35 21.02 63.7 20 62 C18.02 62.495 18.02 62.495 16 63 C16 59 16 59 17.875 57 C18.57625 56.34 19.2775 55.68 20 55 C20.33 54.29875 20.66 53.5975 21 52.875 C22.32863414 50.38381099 23.37076201 50.00581588 26 49 C29.015625 48.8046875 29.015625 48.8046875 32.25 48.875 C33.32765625 48.89304687 34.4053125 48.91109375 35.515625 48.9296875 C36.33546875 48.95289063 37.1553125 48.97609375 38 49 C37.505 49.99 37.505 49.99 37 51 C34.0703125 50.95117188 34.0703125 50.95117188 31.140625 50.90234375 C28.66000824 50.94469744 28.66000824 50.94469744 25 52 C25 58.6 25 65.2 25 72 C23.35 72 21.7 72 20 72 C20 74.97 20 77.94 20 81 C18.68 81 17.36 81 16 81 C16 78.03 16 75.06 16 72 C14.35 72 12.7 72 11 72 C10.67 66.06 10.34 60.12 10 54 C9.67 57.3 9.34 60.6 9 64 C6.525 64.495 6.525 64.495 4 65 C4 66.65 4 68.3 4 70 C2.02 70.495 2.02 70.495 0 71 C0 68.69 0 66.38 0 64 C-1.65 64 -3.3 64 -5 64 C-5.83140715 60.40736145 -6.09935651 57.15835865 -6.02172852 53.4753418 C-6.00163223 52.39459885 -5.98153595 51.3138559 -5.96083069 50.20036316 C-5.93379562 49.0449855 -5.90676056 47.88960785 -5.87890625 46.69921875 C-5.85529526 45.50770706 -5.83168427 44.31619537 -5.80735779 43.08857727 C-5.73086932 39.28809252 -5.64678079 35.48781915 -5.5625 31.6875 C-5.50926451 29.10873425 -5.45652422 26.52995824 -5.40429688 23.95117188 C-5.27527416 17.63398418 -5.14001344 11.31695313 -5 5 C-3.35 5 -1.7 5 0 5 C0 3.35 0 1.7 0 0 Z M9 25 C9 32.26 9 39.52 9 47 C9.66 46.67 10.32 46.34 11 46 C11 39.4 11 32.8 11 26 C10.34 25.67 9.68 25.34 9 25 Z " fill="#6A1412" transform="translate(59,233)"/>
<path d="M0 0 C0 2.64 0 5.28 0 8 C1.98 8 3.96 8 6 8 C6.09765625 14.15234375 6.09765625 14.15234375 6 16 C5.67 16.33 5.34 16.66 5 17 C3.35 17 1.7 17 0 17 C0.33 20.3 0.66 23.6 1 27 C2.65 27.33 4.3 27.66 6 28 C6.29296875 34.0546875 6.29296875 34.0546875 6 36 C2.24543433 38.50304378 0.45254066 38.45280074 -4 38 C-9.53846154 34.92307692 -9.53846154 34.92307692 -11 32 C-11.0716735 29.44842345 -11.09308442 26.92527029 -11.0625 24.375 C-11.05798828 23.66859375 -11.05347656 22.9621875 -11.04882812 22.234375 C-11.03703875 20.48954725 -11.01910324 18.744763 -11 17 C-11.99 17 -12.98 17 -14 17 C-14.33 14.03 -14.66 11.06 -15 8 C-14.01 7.67 -13.02 7.34 -12 7 C-11.67 5.35 -11.34 3.7 -11 2 C-3.375 0 -3.375 0 0 0 Z " fill="#E3E3E3" transform="translate(441,233)"/>
<path d="M0 0 C-0.33 10.89 -0.66 21.78 -1 33 C-0.01 33 0.98 33 2 33 C2.66 35.31 3.32 37.62 4 40 C3 41 3 41 -0.81640625 41.09765625 C-2.39846682 41.09098089 -3.98051159 41.07901875 -5.5625 41.0625 C-6.36880859 41.05798828 -7.17511719 41.05347656 -8.00585938 41.04882812 C-10.00393756 41.03700518 -12.00197783 41.01906914 -14 41 C-13.67 38.36 -13.34 35.72 -13 33 C-12.01 33 -11.02 33 -10 33 C-10 24.75 -10 16.5 -10 8 C-10.99 8 -11.98 8 -13 8 C-13 5.69 -13 3.38 -13 1 C-11.58366664 0.83052421 -10.16691467 0.66454493 -8.75 0.5 C-7.56664062 0.36078125 -7.56664062 0.36078125 -6.359375 0.21875 C-4 0 -4 0 0 0 Z " fill="#F7F7F7" transform="translate(324,229)"/>
<path d="M0 0 C0.99 0.33 1.98 0.66 3 1 C2.67 3.97 2.34 6.94 2 10 C3.98 10 5.96 10 8 10 C8 18.58 8 27.16 8 36 C8.66 36.33 9.32 36.66 10 37 C9.41992188 37.06058594 8.83984375 37.12117188 8.2421875 37.18359375 C3.79907137 37.66016561 -0.59905423 38.21008666 -5 39 C-5 36.69 -5 34.38 -5 32 C-5.66 32 -6.32 32 -7 32 C-7 24.74 -7 17.48 -7 10 C-5.02 10 -3.04 10 -1 10 C-1.01160156 9.36191406 -1.02320312 8.72382813 -1.03515625 8.06640625 C-1.04417969 7.24011719 -1.05320312 6.41382813 -1.0625 5.5625 C-1.07410156 4.73878906 -1.08570312 3.91507813 -1.09765625 3.06640625 C-1 1 -1 1 0 0 Z " fill="#ED6420" transform="translate(125,193)"/>
<path d="M0 0 C0.66 0 1.32 0 2 0 C2.33 2.31 2.66 4.62 3 7 C4.65 7.33 6.3 7.66 8 8 C8 18.56 8 29.12 8 40 C0 43 0 43 -4 43 C-4.20638953 18.01734161 -4.20638953 18.01734161 -3 8 C-2.01 8 -1.02 8 0 8 C0 5.36 0 2.72 0 0 Z " fill="#BD2023" transform="translate(92,197)"/>
<path d="M0 0 C2 1 2 1 2.74609375 2.70703125 C2.97425781 3.40183594 3.20242187 4.09664062 3.4375 4.8125 C4.56086518 8.01638333 5.85428816 10.34340439 8 13 C8 13.66 8 14.32 8 15 C8.99 15.33 9.98 15.66 11 16 C12 19 12 19 11 22 C10.34 22 9.68 22 9 22 C9 22.66 9 23.32 9 24 C12.3 23.34 15.6 22.68 19 22 C19 25.96 19 29.92 19 34 C15.04 34 11.08 34 7 34 C7 30.7 7 27.4 7 24 C4.03 24 1.06 24 -2 24 C-2 24.99 -2 25.98 -2 27 C-0.35 27 1.3 27 3 27 C3 28.98 3 30.96 3 33 C2.34 33 1.68 33 1 33 C0.34 31.35 -0.32 29.7 -1 28 C-1.66 28 -2.32 28 -3 28 C-4.25664978 25.09399739 -5 23.20395416 -5 20 C-5.66 20 -6.32 20 -7 20 C-7 18.68 -7 17.36 -7 16 C-6.34 16 -5.68 16 -5 16 C-5 14.02 -5 12.04 -5 10 C-4.01 9.67 -3.02 9.34 -2 9 C-1.19436362 6.89415562 -1.19436362 6.89415562 -0.8125 4.4375 C-0.65394531 3.61121094 -0.49539062 2.78492188 -0.33203125 1.93359375 C-0.22246094 1.29550781 -0.11289063 0.65742188 0 0 Z " fill="#EB4B1F" transform="translate(129,246)"/>
<path d="M0 0 C0.66 0 1.32 0 2 0 C2.94137255 2.82411765 3.11725382 4.52918032 3.09765625 7.44921875 C3.09443359 8.29677734 3.09121094 9.14433594 3.08789062 10.01757812 C3.07951172 10.89865234 3.07113281 11.77972656 3.0625 12.6875 C3.05798828 13.58017578 3.05347656 14.47285156 3.04882812 15.39257812 C3.03704983 17.59511987 3.02060164 19.79752599 3 22 C4.32 22 5.64 22 7 22 C6.67 24.64 6.34 27.28 6 30 C3.35409986 30.02684679 0.70846904 30.04676357 -1.9375 30.0625 C-2.69224609 30.07087891 -3.44699219 30.07925781 -4.22460938 30.08789062 C-6.14994313 30.09652441 -8.07535581 30.05224333 -10 30 C-11 29 -11 29 -11.0625 25.4375 C-11.041875 24.303125 -11.02125 23.16875 -11 22 C-10.01 21.67 -9.02 21.34 -8 21 C-8 17.37 -8 13.74 -8 10 C-8.66 10 -9.32 10 -10 10 C-10.99435406 6.90645403 -10.87840996 5.09720845 -10 2 C-9.04287109 1.90912109 -9.04287109 1.90912109 -8.06640625 1.81640625 C-6.82697266 1.69072266 -6.82697266 1.69072266 -5.5625 1.5625 C-4.73878906 1.48128906 -3.91507812 1.40007812 -3.06640625 1.31640625 C-1.01337975 1.21069185 -1.01337975 1.21069185 0 0 Z " fill="#EBECEB" transform="translate(420,240)"/>
<path d="M0 0 C1.32 0 2.64 0 4 0 C4 2.64 4 5.28 4 8 C5.65 8 7.3 8 9 8 C9 15.26 9 22.52 9 30 C8.34 30 7.68 30 7 30 C6.67 30.99 6.34 31.98 6 33 C3.96875 33.66015625 3.96875 33.66015625 1.5 34.0625 C-0.91007019 34.42516952 -0.91007019 34.42516952 -3 35 C-3.33 35.66 -3.66 36.32 -4 37 C-5.1922117 27.33456945 -5.09622024 17.71824449 -5 8 C-3.35 8 -1.7 8 0 8 C0 5.36 0 2.72 0 0 Z " fill="#F08620" transform="translate(156,186)"/>
<path d="M0 0 C1.32 0.33 2.64 0.66 4 1 C4 4.3 4 7.6 4 11 C5.65 11 7.3 11 9 11 C9 13.97 9 16.94 9 20 C7.9275 20.103125 6.855 20.20625 5.75 20.3125 C2.14381749 20.97363346 0.46075184 21.34238801 -2 24 C-2 25.32 -2 26.64 -2 28 C-2.99 28 -3.98 28 -5 28 C-5.33 28.99 -5.66 29.98 -6 31 C-9.07282664 32.9347427 -12.51916377 34.01628541 -16 35 C-16.66 34.67 -17.32 34.34 -18 34 C-18 34.66 -18 35.32 -18 36 C-20.64 36.33 -23.28 36.66 -26 37 C-25.01 36.505 -25.01 36.505 -24 36 C-24.03480469 35.15695313 -24.06960937 34.31390625 -24.10546875 33.4453125 C-24.13253906 32.34960938 -24.15960938 31.25390625 -24.1875 30.125 C-24.22230469 29.03445312 -24.25710937 27.94390625 -24.29296875 26.8203125 C-24.19628906 25.88960937 -24.09960938 24.95890625 -24 24 C-23.01 23.34 -22.02 22.68 -21 22 C-20.67 24.97 -20.34 27.94 -20 31 C-19.2575 30.67 -18.515 30.34 -17.75 30 C-15 29 -15 29 -11 29 C-10.67 27.68 -10.34 26.36 -10 25 C-9.34 25.33 -8.68 25.66 -8 26 C-8 18.74 -8 11.48 -8 4 C-7.67 4 -7.34 4 -7 4 C-6.67 6.31 -6.34 8.62 -6 11 C-4.35 10.67 -2.7 10.34 -1 10 C-0.67 6.7 -0.34 3.4 0 0 Z " fill="#B6641B" transform="translate(173,190)"/>
<path d="M0 0 C0.33 0 0.66 0 1 0 C1 11.22 1 22.44 1 34 C-6 35 -6 35 -11 34 C-11 28.72 -11 23.44 -11 18 C-9.35 17.34 -7.7 16.68 -6 16 C-6.061875 15.154375 -6.12375 14.30875 -6.1875 13.4375 C-5.95984372 9.26380157 -4.79792186 6.74567053 -3 3 C-2.34 3 -1.68 3 -1 3 C-0.67 2.01 -0.34 1.02 0 0 Z " fill="#EE7A22" transform="translate(212,255)"/>
<path d="M0 0 C0.66 0.33 1.32 0.66 2 1 C1.67 2.98 1.34 4.96 1 7 C0.34 7 -0.32 7 -1 7 C-1.433125 7.8971875 -1.433125 7.8971875 -1.875 8.8125 C-3 11 -3 11 -5 14 C-5.4603764 17.19806665 -5.4603764 17.19806665 -5.625 20.6875 C-5.69976562 21.86699219 -5.77453125 23.04648437 -5.8515625 24.26171875 C-5.90054688 25.16535156 -5.94953125 26.06898438 -6 27 C-7.65 27.33 -9.3 27.66 -11 28 C-11.66 30.97 -12.32 33.94 -13 37 C-13.33 37 -13.66 37 -14 37 C-14 33.37 -14 29.74 -14 26 C-15.65 25.67 -17.3 25.34 -19 25 C-19 22.69 -19 20.38 -19 18 C-17.68 17.34 -16.36 16.68 -15 16 C-16.32 16 -17.64 16 -19 16 C-19 13.69 -19 11.38 -19 9 C-18.13375 9.2784375 -18.13375 9.2784375 -17.25 9.5625 C-14.79307475 10.04023546 -13.35602466 9.75729364 -11 9 C-11 10.32 -11 11.64 -11 13 C-8.50447516 12.21869929 -8.50447516 12.21869929 -6 11 C-5.67 10.01 -5.34 9.02 -5 8 C-2.4375 6.8125 -2.4375 6.8125 0 6 C0 4.02 0 2.04 0 0 Z " fill="#EA6C25" transform="translate(188,266)"/>
<path d="M0 0 C2 1.375 2 1.375 4 3 C4 3.66 4 4.32 4 5 C4.99 5 5.98 5 7 5 C7.28571429 12.42857143 7.28571429 12.42857143 5 16 C4.34 16 3.68 16 3 16 C2.7525 17.093125 2.505 18.18625 2.25 19.3125 C1 23 1 23 -0.8125 24.9375 C-3.38479331 26.18689961 -5.17438742 26.23546771 -8 26 C-7.34 25.67 -6.68 25.34 -6 25 C-6 17.41 -6 9.82 -6 2 C-4.02 2 -2.04 2 0 2 C0 1.34 0 0.68 0 0 Z " fill="#E26E25" transform="translate(190,184)"/>
<path d="M0 0 C1.32 0 2.64 0 4 0 C4 2.64 4 5.28 4 8 C5.65 8 7.3 8 9 8 C8.44687265 12.02992782 7.8441938 16.02022924 7 20 C6.01 20 5.02 20 4 20 C4 20.66 4 21.32 4 22 C4.66 22.33 5.32 22.66 6 23 C2.60379269 25.08997373 -0.05163095 25.2632246 -4 25 C-5.78126089 23.21873911 -5.42034316 20.60537435 -5.625 18.1875 C-5.76808594 16.60001953 -5.76808594 16.60001953 -5.9140625 14.98046875 C-5.98971418 12.35673078 -5.80235938 10.47294346 -5 8 C-3.35 8 -1.7 8 0 8 C0 5.36 0 2.72 0 0 Z " fill="#E36C22" transform="translate(140,205)"/>
<path d="M0 0 C0.99 0 1.98 0 3 0 C3 2.97 3 5.94 3 9 C4.98 9 6.96 9 9 9 C9.33 17.58 9.66 26.16 10 35 C7.69 35 5.38 35 3 35 C4.98 34.505 4.98 34.505 7 34 C7 28.39 7 22.78 7 17 C1.86825149 18.14384988 1.86825149 18.14384988 -3 20 C-4.13350534 22.01669827 -4.13350534 22.01669827 -5 24 C-7.02907167 20.6853333 -7.12742133 18.5684021 -6.625 14.75 C-6.51414063 13.85796875 -6.40328125 12.9659375 -6.2890625 12.046875 C-6.14597656 11.03367188 -6.14597656 11.03367188 -6 10 C-4.35 9.67 -2.7 9.34 -1 9 C-1.020625 7.700625 -1.04125 6.40125 -1.0625 5.0625 C-1.08399454 3.70834367 -1.07148199 2.35243917 -1 1 C-0.67 0.67 -0.34 0.34 0 0 Z " fill="#E84020" transform="translate(206,202)"/>
<path d="M0 0 C1.32 0 2.64 0 4 0 C4.02464928 5.25105442 4.04283568 10.50207545 4.05493164 15.75317383 C4.05997218 17.54094021 4.06680454 19.32870245 4.07543945 21.11645508 C4.0875173 23.68051168 4.09323094 26.24451397 4.09765625 28.80859375 C4.10281754 29.6127623 4.10797882 30.41693085 4.11329651 31.24546814 C4.11349215 33.16401715 4.06201983 35.08245368 4 37 C3 38 3 38 0.4375 38.0625 C-0.366875 38.041875 -1.17125 38.02125 -2 38 C-2 40.64 -2 43.28 -2 46 C-3.32 46 -4.64 46 -6 46 C-6 43.03 -6 40.06 -6 37 C-7.65 37 -9.3 37 -11 37 C-11.82351864 30.61773055 -12.12086218 24.43255401 -12 18 C-12.99 17.67 -13.98 17.34 -15 17 C-12.69 17 -10.38 17 -8 17 C-8.020625 15.88625 -8.04125 14.7725 -8.0625 13.625 C-8 10 -8 10 -7 8 C-6.34 8 -5.68 8 -5 8 C-4.34 6.68 -3.68 5.36 -3 4 C-2.34 4 -1.68 4 -1 4 C-0.67 2.68 -0.34 1.36 0 0 Z M1 2 C0.67 2.99 0.34 3.98 0 5 C-0.99 5.33 -1.98 5.66 -3 6 C-4.80795432 10.0916861 -5.21156222 13.55719328 -5 18 C-6.65 18.66 -8.3 19.32 -10 20 C-10 25.28 -10 30.56 -10 36 C-8.14375 36.2784375 -8.14375 36.2784375 -6.25 36.5625 C-5.55390625 36.66691406 -4.8578125 36.77132812 -4.140625 36.87890625 C-1.66058453 37.12547949 -1.66058453 37.12547949 2 36 C2 24.78 2 13.56 2 2 C1.67 2 1.34 2 1 2 Z " fill="#87401B" transform="translate(211,253)"/>
<path d="M0 0 C-0.99 1.485 -0.99 1.485 -2 3 C-2 3.99 -2 4.98 -2 6 C-0.68 6.33 0.64 6.66 2 7 C2 9.97 2 12.94 2 16 C1.67 16 1.34 16 1 16 C1 13.36 1 10.72 1 8 C-0.65 8 -2.3 8 -4 8 C-4.06058594 9.21558594 -4.12117187 10.43117188 -4.18359375 11.68359375 C-4.26798332 13.26824228 -4.3526321 14.85287702 -4.4375 16.4375 C-4.49647461 17.64116211 -4.49647461 17.64116211 -4.55664062 18.86914062 C-4.88671875 24.88671875 -4.88671875 24.88671875 -6 26 C-7.66617115 26.04063832 -9.33388095 26.042721 -11 26 C-11 28.64 -11 31.28 -11 34 C-12.32 34 -13.64 34 -15 34 C-14.505 29.545 -14.505 29.545 -14 25 C-15.65 25 -17.3 25 -19 25 C-19 22.36 -19 19.72 -19 17 C-15.04 17 -11.08 17 -7 17 C-6.67 12.38 -6.34 7.76 -6 3 C-6.99 2.67 -7.98 2.34 -9 2 C-4 -1.33333333 -4 -1.33333333 0 0 Z " fill="#DE2322" transform="translate(155,263)"/>
<path d="M0 0 C3.63 0 7.26 0 11 0 C12 1 12 1 12 4.9375 C11.26843263 11.03389475 7.96144763 15.45622776 4 20 C2.68 20.99 1.36 21.98 0 23 C0 15.41 0 7.82 0 0 Z " fill="#AA1E21" transform="translate(71,261)"/>
<path d="M0 0 C4 1 4 1 6 3 C6.125 5.625 6.125 5.625 6 8 C6.66 8 7.32 8 8 8 C9.17571451 11.67410785 9.07366746 15.16929183 9 19 C8.195625 19.2475 7.39125 19.495 6.5625 19.75 C3.828919 20.72238859 3.828919 20.72238859 3.1875 23.125 C3.125625 23.74375 3.06375 24.3625 3 25 C1.35 25.33 -0.3 25.66 -2 26 C-2 24.68 -2 23.36 -2 22 C-0.68 21.67 0.64 21.34 2 21 C1.67 19.68 1.34 18.36 1 17 C-0.32 17 -1.64 17 -3 17 C-3.33 14.36 -3.66 11.72 -4 9 C-3.34 8.67 -2.68 8.34 -2 8 C-1.34 8.33 -0.68 8.66 0 9 C0 6.03 0 3.06 0 0 Z " fill="#EB7825" transform="translate(179,253)"/>
<path d="M0 0 C1.32 0.33 2.64 0.66 4 1 C3.34 1 2.68 1 2 1 C2 3.64 2 6.28 2 9 C0.35 9 -1.3 9 -3 9 C-3 9.99 -3 10.98 -3 12 C-2.01 12 -1.02 12 0 12 C0 12.66 0 13.32 0 14 C-0.99 14 -1.98 14 -3 14 C-3 19.28 -3 24.56 -3 30 C-2.01 30 -1.02 30 0 30 C0 30.66 0 31.32 0 32 C2.26297735 31.14532959 2.26297735 31.14532959 3 28.5 C4 26 4 26 6 25 C6 21.7 6 18.4 6 15 C5.34 14.67 4.68 14.34 4 14 C3.3125 11.5 3.3125 11.5 3 9 C3.33 8.67 3.66 8.34 4 8 C5.65 8 7.3 8 9 8 C9 15.26 9 22.52 9 30 C8.34 30 7.68 30 7 30 C6.67 30.99 6.34 31.98 6 33 C3.96875 33.66015625 3.96875 33.66015625 1.5 34.0625 C-0.91007019 34.42516952 -0.91007019 34.42516952 -3 35 C-3.33 35.66 -3.66 36.32 -4 37 C-5.1922117 27.33456945 -5.09622024 17.71824449 -5 8 C-3.35 8 -1.7 8 0 8 C0 5.36 0 2.72 0 0 Z " fill="#F18926" transform="translate(156,186)"/>
<path d="M0 0 C0.99 0.33 1.98 0.66 3 1 C2.67 3.97 2.34 6.94 2 10 C3.98 10 5.96 10 8 10 C8 18.58 8 27.16 8 36 C8.66 36.33 9.32 36.66 10 37 C9.41992188 37.06058594 8.83984375 37.12117188 8.2421875 37.18359375 C3.79907137 37.66016561 -0.59905423 38.21008666 -5 39 C-5 37.35 -5 35.7 -5 34 C-4.67 34.66 -4.34 35.32 -4 36 C-1.69 36 0.62 36 3 36 C3 35.34 3 34.68 3 34 C3.99 34 4.98 34 6 34 C6 26.74 6 19.48 6 12 C2.7 12 -0.6 12 -4 12 C-4.33 18.6 -4.66 25.2 -5 32 C-5.66 32 -6.32 32 -7 32 C-7 24.74 -7 17.48 -7 10 C-5.02 10 -3.04 10 -1 10 C-1.01160156 9.36191406 -1.02320312 8.72382813 -1.03515625 8.06640625 C-1.04417969 7.24011719 -1.05320312 6.41382813 -1.0625 5.5625 C-1.07410156 4.73878906 -1.08570312 3.91507813 -1.09765625 3.06640625 C-1 1 -1 1 0 0 Z " fill="#BF5E2A" transform="translate(125,193)"/>
<path d="M0 0 C1.32 0.33 2.64 0.66 4 1 C3.67 1.99 3.34 2.98 3 4 C2.67 3.67 2.34 3.34 2 3 C1.67 4.32 1.34 5.64 1 7 C-0.65 7 -2.3 7 -4 7 C-4 25.15 -4 43.3 -4 62 C-1.03 61.34 1.94 60.68 5 60 C6.485 53.07 6.485 53.07 8 46 C8.33 46 8.66 46 9 46 C9 51.94 9 57.88 9 64 C6.525 64.495 6.525 64.495 4 65 C4 66.65 4 68.3 4 70 C2.02 70.495 2.02 70.495 0 71 C0 68.69 0 66.38 0 64 C-1.65 64 -3.3 64 -5 64 C-5.83140715 60.40736145 -6.09935651 57.15835865 -6.02172852 53.4753418 C-6.00163223 52.39459885 -5.98153595 51.3138559 -5.96083069 50.20036316 C-5.93379562 49.0449855 -5.90676056 47.88960785 -5.87890625 46.69921875 C-5.85529526 45.50770706 -5.83168427 44.31619537 -5.80735779 43.08857727 C-5.73086932 39.28809252 -5.64678079 35.48781915 -5.5625 31.6875 C-5.50926451 29.10873425 -5.45652422 26.52995824 -5.40429688 23.95117188 C-5.27527416 17.63398418 -5.14001344 11.31695313 -5 5 C-3.35 5 -1.7 5 0 5 C0 3.35 0 1.7 0 0 Z " fill="#7B2121" transform="translate(59,233)"/>
<path d="M0 0 C0.33 0 0.66 0 1 0 C1.10477512 5.78591511 0.99250545 11.29309366 0 17 C-1.32 17 -2.64 17 -4 17 C-4 19.64 -4 22.28 -4 25 C-4.66 25 -5.32 25 -6 25 C-6 22.69 -6 20.38 -6 18 C-8.31 18 -10.62 18 -13 18 C-11.83543272 9.84802906 -7.02908768 6.02874578 -1 1 C-0.67 0.67 -0.34 0.34 0 0 Z " fill="#BD2225" transform="translate(115,272)"/>
<path d="M0 0 C0.99 0.33 1.98 0.66 3 1 C3 4.3 3 7.6 3 11 C4.32 11 5.64 11 7 11 C7 13.97 7 16.94 7 20 C4.03 20 1.06 20 -2 20 C-2.33 20.66 -2.66 21.32 -3 22 C-3.66 21.67 -4.32 21.34 -5 21 C-5 17.37 -5 13.74 -5 10 C-4.01 9.67 -3.02 9.34 -2 9 C-1.7834375 7.0509375 -1.7834375 7.0509375 -1.5625 5.0625 C-1.125 1.125 -1.125 1.125 0 0 Z " fill="#A32123" transform="translate(76,217)"/>
<path d="M0 0 C3.96 0 7.92 0 12 0 C12 10.56 12 21.12 12 32 C12.66 32.33 13.32 32.66 14 33 C13.01 33 12.02 33 11 33 C10.97494385 32.44014404 10.9498877 31.88028809 10.92407227 31.3034668 C10.80796255 28.76458695 10.6853042 26.22606447 10.5625 23.6875 C10.52318359 22.80642578 10.48386719 21.92535156 10.44335938 21.01757812 C10.38051758 19.74624023 10.38051758 19.74624023 10.31640625 18.44921875 C10.27974854 17.66893311 10.24309082 16.88864746 10.20532227 16.0847168 C10.05874737 13.80670899 10.05874737 13.80670899 9 11 C6.03 11 3.06 11 0 11 C0 7.37 0 3.74 0 0 Z " fill="#BABABA" transform="translate(412,229)"/>
<path d="M0 0 C2.0625 0.4375 2.0625 0.4375 4 1 C4.125 3.875 4.125 3.875 4 7 C3.34 7.66 2.68 8.32 2 9 C2 6.69 2 4.38 2 2 C1.34 2 0.68 2 0 2 C0 4.64 0 7.28 0 10 C-0.99 10 -1.98 10 -3 10 C-2.98839844 10.59941406 -2.97679688 11.19882813 -2.96484375 11.81640625 C-2.85457543 22.89049637 -3.47153745 33.94164006 -4 45 C-0.535 44.505 -0.535 44.505 3 44 C3 44.66 3 45.32 3 46 C2.236875 46.28875 1.47375 46.5775 0.6875 46.875 C-2.15029308 47.96269013 -2.15029308 47.96269013 -5 50 C-7.609873 46.0851905 -7.15493274 42.91368095 -6.9765625 38.39453125 C-6.95153656 37.55532639 -6.92651062 36.71612152 -6.90072632 35.85148621 C-6.81856181 33.17141105 -6.72195916 30.49207676 -6.625 27.8125 C-6.56675677 25.99547296 -6.50945356 24.17841553 -6.453125 22.36132812 C-6.31298837 17.90712607 -6.15990126 13.45353456 -6 9 C-4.35 9 -2.7 9 -1 9 C-1.020625 7.700625 -1.04125 6.40125 -1.0625 5.0625 C-1.08399454 3.70834367 -1.07148199 2.35243917 -1 1 C-0.67 0.67 -0.34 0.34 0 0 Z " fill="#72171A" transform="translate(92,195)"/>
<path d="M0 0 C0.66 0 1.32 0 2 0 C2 0.66 2 1.32 2 2 C5.50538557 3.96301592 9.13351728 4.95902388 13 6 C13 6.99 13 7.98 13 9 C10.59454362 10.20272819 9.05003047 10.10071472 6.375 10.0625 C5.14910156 10.04896484 5.14910156 10.04896484 3.8984375 10.03515625 C2.95871094 10.01775391 2.95871094 10.01775391 2 10 C2 14.47731299 3.16606583 16.96534483 5 21 C5.33 21.99 5.66 22.98 6 24 C3.75 24.3125 3.75 24.3125 1 24 C-2.22175062 20.77824938 -4.089998 17.1065043 -6 13 C-5.01 12.67 -4.02 12.34 -3 12 C-3 12.99 -3 13.98 -3 15 C-2.34 15 -1.68 15 -1 15 C-1.33 12.03 -1.66 9.06 -2 6 C-0.68 5.34 0.64 4.68 2 4 C1.34 2.68 0.68 1.36 0 0 Z " fill="#A63D22" transform="translate(222,240)"/>
<path d="M0 0 C1.32 0.66 2.64 1.32 4 2 C4 2.33 4 2.66 4 3 C2.35 3.33 0.7 3.66 -1 4 C-1 5.65 -1 7.3 -1 9 C4.57830016 9.12469099 4.57830016 9.12469099 10 8 C9.01 8.495 9.01 8.495 8 9 C8.33 9.99 8.66 10.98 9 12 C8.01 12.495 8.01 12.495 7 13 C7 12.34 7 11.68 7 11 C6.01 11 5.02 11 4 11 C4 13.31 4 15.62 4 18 C5.32 18 6.64 18 8 18 C7.67 18.66 7.34 19.32 7 20 C6.34 20 5.68 20 5 20 C4.67 22.31 4.34 24.62 4 27 C5.65 27.33 7.3 27.66 9 28 C9.33 30.31 9.66 32.62 10 35 C10.33 33.35 10.66 31.7 11 30 C11.33 30 11.66 30 12 30 C12 32.97 12 35.94 12 39 C10.02 39.495 10.02 39.495 8 40 C7 39 7 39 6.90234375 36.93359375 C6.91394531 36.10988281 6.92554688 35.28617187 6.9375 34.4375 C6.94652344 33.61121094 6.95554688 32.78492188 6.96484375 31.93359375 C6.97644531 31.29550781 6.98804688 30.65742188 7 30 C5.35 29.67 3.7 29.34 2 29 C2.01160156 28.25234375 2.02320313 27.5046875 2.03515625 26.734375 C2.04417969 25.74953125 2.05320313 24.7646875 2.0625 23.75 C2.07410156 22.77546875 2.08570313 21.8009375 2.09765625 20.796875 C2.01153986 18.33050152 1.6623822 16.35745475 1 14 C1 13.34 1 12.68 1 12 C-0.32 11.67 -1.64 11.34 -3 11 C-3 9.68 -3 8.36 -3 7 C-3.66 6.67 -4.32 6.34 -5 6 C-4.34 6 -3.68 6 -3 6 C-2.67 4.68 -2.34 3.36 -2 2 C-1.34 2 -0.68 2 0 2 C0 1.34 0 0.68 0 0 Z " fill="#8D371B" transform="translate(165,264)"/>
<path d="M0 0 C1.65 0 3.3 0 5 0 C5 3.96 5 7.92 5 12 C6.98 12 8.96 12 11 12 C11 11.34 11 10.68 11 10 C12.0828125 9.8453125 12.0828125 9.8453125 13.1875 9.6875 C16.08953219 9.13181279 16.08953219 9.13181279 18.625 7.375 C19.40875 6.92125 20.1925 6.4675 21 6 C21.99 6.33 22.98 6.66 24 7 C23.01 7.495 23.01 7.495 22 8 C21.67 8.99 21.34 9.98 21 11 C20.01 11.66 19.02 12.32 18 13 C17.566875 14.0209375 17.566875 14.0209375 17.125 15.0625 C16 17 16 17 13.5 17.875 C12.2625 17.936875 12.2625 17.936875 11 18 C10.34 17.34 9.68 16.68 9 16 C9 15.01 9 14.02 9 13 C8.34 13 7.68 13 7 13 C6.87625 13.639375 6.7525 14.27875 6.625 14.9375 C6.41875 15.618125 6.2125 16.29875 6 17 C5.34 17.33 4.68 17.66 4 18 C4 17.34 4 16.68 4 16 C1.69 16.33 -0.62 16.66 -3 17 C-2.505 16.38125 -2.01 15.7625 -1.5 15.125 C0.19222773 13.16119096 0.19222773 13.16119096 0 11 C0.99 11 1.98 11 3 11 C3.33 7.7 3.66 4.4 4 1 C2.68 0.67 1.36 0.34 0 0 Z " fill="#EA8427" transform="translate(144,214)"/>
<path d="M0 0 C0 5.61 0 11.22 0 17 C-1.32 16.67 -2.64 16.34 -4 16 C-4 15.34 -4 14.68 -4 14 C-4.99 13.67 -5.98 13.34 -7 13 C-7 11.68 -7 10.36 -7 9 C-8.32 8.34 -9.64 7.68 -11 7 C-10.1875 4.0625 -10.1875 4.0625 -9 1 C-6 0 -6 0 0 0 Z " fill="#E94C22" transform="translate(213,219)"/>
<path d="M0 0 C0.99 0 1.98 0 3 0 C3 2.64 3 5.28 3 8 C4.98 8 6.96 8 9 8 C9 19.88 9 31.76 9 44 C7.02 44.495 7.02 44.495 5 45 C4.34 42.36 3.68 39.72 3 37 C3.99 37.66 4.98 38.32 6 39 C6.33 29.76 6.66 20.52 7 11 C6.01 11 5.02 11 4 11 C4 10.34 4 9.68 4 9 C3.01 8.67 2.02 8.34 1 8 C1 7.34 1 6.68 1 6 C0.34 5.67 -0.32 5.34 -1 5 C-0.67 3.35 -0.34 1.7 0 0 Z " fill="#D16233" transform="translate(190,178)"/>
<path d="M0 0 C0.99 0.33 1.98 0.66 3 1 C3.125 7.75 3.125 7.75 2 10 C3.65 10 5.3 10 7 10 C7 13.63 7 17.26 7 21 C6.67 21 6.34 21 6 21 C6 18.36 6 15.72 6 13 C3.66924071 13.95865509 3.66924071 13.95865509 2 17 C1.67 15.68 1.34 14.36 1 13 C0.34 13 -0.32 13 -1 13 C-1.66 15.97 -2.32 18.94 -3 22 C-3.99 21.67 -4.98 21.34 -6 21 C-6 17.7 -6 14.4 -6 11 C-4.35 11 -2.7 11 -1 11 C-1.01160156 10.28972656 -1.02320312 9.57945312 -1.03515625 8.84765625 C-1.04869141 7.46900391 -1.04869141 7.46900391 -1.0625 6.0625 C-1.07410156 5.14597656 -1.08570312 4.22945312 -1.09765625 3.28515625 C-1 1 -1 1 0 0 Z " fill="#CA2D25" transform="translate(109,209)"/>
<path d="M0 0 C0.66 0 1.32 0 2 0 C2 3.3 2 6.6 2 10 C3.98 9.67 5.96 9.34 8 9 C8 11.31 8 13.62 8 16 C3.71 16.66 -0.58 17.32 -5 18 C-5 15.36 -5 12.72 -5 10 C-3.68 9.67 -2.36 9.34 -1 9 C-0.67 6.03 -0.34 3.06 0 0 Z " fill="#DE7F2F" transform="translate(174,192)"/>
<path d="M0 0 C0.66 0 1.32 0 2 0 C0.36734694 4.64678179 0.36734694 4.64678179 -1.625 6.5625 C-3.4608151 8.1502231 -3.4608151 8.1502231 -3 12 C-3.66 12 -4.32 12 -5 12 C-4.67 13.98 -4.34 15.96 -4 18 C-5.65 18.66 -7.3 19.32 -9 20 C-9.33 25.28 -9.66 30.56 -10 36 C-8.35 36 -6.7 36 -5 36 C-5 39.3 -5 42.6 -5 46 C-5.33 46 -5.66 46 -6 46 C-6 43.03 -6 40.06 -6 37 C-7.65 37 -9.3 37 -11 37 C-11.82351864 30.61773055 -12.12086218 24.43255401 -12 18 C-12.99 17.67 -13.98 17.34 -15 17 C-12.69 17 -10.38 17 -8 17 C-8.020625 15.88625 -8.04125 14.7725 -8.0625 13.625 C-8 10 -8 10 -7 8 C-6.34 8 -5.68 8 -5 8 C-4.34 6.68 -3.68 5.36 -3 4 C-2.34 4 -1.68 4 -1 4 C-0.67 2.68 -0.34 1.36 0 0 Z " fill="#9C4B17" transform="translate(211,253)"/>
<path d="M0 0 C0.33 0 0.66 0 1 0 C1 7.26 1 14.52 1 22 C-1.31 21.01 -3.62 20.02 -6 19 C-7.30961513 15.48471727 -7.49524161 13.29944128 -6.1484375 9.765625 C-5.17355777 7.78781144 -4.14133646 5.88589931 -3 4 C-2.34 4 -1.68 4 -1 4 C-0.67 2.68 -0.34 1.36 0 0 Z " fill="#E55422" transform="translate(196,196)"/>
<path d="M0 0 C1.98 0 3.96 0 6 0 C6.33 4.62 6.66 9.24 7 14 C8.98 14 10.96 14 13 14 C13 14.66 13 15.32 13 16 C11.35 16 9.7 16 8 16 C8 19.3 8 22.6 8 26 C9.98 26.66 11.96 27.32 14 28 C14 29.32 14 30.64 14 32 C12.906875 32.309375 11.81375 32.61875 10.6875 32.9375 C8.44592006 33.58337897 6.2130649 34.2623117 4 35 C4.33 23.78 4.66 12.56 5 1 C3.35 1 1.7 1 0 1 C0 0.67 0 0.34 0 0 Z M6 18 C6 21.3 6 24.6 6 28 C6.33 28 6.66 28 7 28 C7 24.7 7 21.4 7 18 C6.67 18 6.34 18 6 18 Z M6 30 C7 33 7 33 7 33 Z " fill="#A02520" transform="translate(95,204)"/>
<path d="M0 0 C0 1.32 0 2.64 0 4 C1.98 4 3.96 4 6 4 C8.39073445 7.82517513 8.55966552 11.59665524 9 16 C6 17 6 17 3 16 C3 13.69 3 11.38 3 9 C-1.48133574 8.27743171 -1.48133574 8.27743171 -6 8 C-6.36458333 3.50347222 -6.36458333 3.50347222 -4.6875 1.1875 C-3 0 -3 0 0 0 Z " fill="#DE2521" transform="translate(118,262)"/>
<path d="M0 0 C-0.99 1.485 -0.99 1.485 -2 3 C-2 3.99 -2 4.98 -2 6 C-0.68 6.33 0.64 6.66 2 7 C2 9.97 2 12.94 2 16 C1.67 16 1.34 16 1 16 C1 13.36 1 10.72 1 8 C-0.65 8 -2.3 8 -4 8 C-4.06058594 9.21558594 -4.12117187 10.43117188 -4.18359375 11.68359375 C-4.26798332 13.26824228 -4.3526321 14.85287702 -4.4375 16.4375 C-4.49647461 17.64116211 -4.49647461 17.64116211 -4.55664062 18.86914062 C-4.88671875 24.88671875 -4.88671875 24.88671875 -6 26 C-7.66617115 26.04063832 -9.33388095 26.042721 -11 26 C-11 28.64 -11 31.28 -11 34 C-12.32 33.67 -13.64 33.34 -15 33 C-14.01 33 -13.02 33 -12 33 C-12 30.36 -12 27.72 -12 25 C-10.35 24.67 -8.7 24.34 -7 24 C-6.67 17.07 -6.34 10.14 -6 3 C-6.99 2.67 -7.98 2.34 -9 2 C-4 -1.33333333 -4 -1.33333333 0 0 Z " fill="#842C12" transform="translate(155,263)"/>
<path d="M0 0 C1.32 0.33 2.64 0.66 4 1 C4 4.3 4 7.6 4 11 C4.66 11.33 5.32 11.66 6 12 C5.01 12 4.02 12 3 12 C3 8.7 3 5.4 3 2 C2.34 2 1.68 2 1 2 C1 4.97 1 7.94 1 11 C-0.65 11.33 -2.3 11.66 -4 12 C-4 14.64 -4 17.28 -4 20 C-2.96875 19.67 -1.9375 19.34 -0.875 19 C2.48426709 18.0284808 5.49106202 17.82883229 9 18 C9 18.66 9 19.32 9 20 C7.989375 20.061875 6.97875 20.12375 5.9375 20.1875 C1.32715897 20.80721998 -1.38729383 23.18208919 -5 26 C-5.33 26 -5.66 26 -6 26 C-6 21.05 -6 16.1 -6 11 C-4.35 10.67 -2.7 10.34 -1 10 C-0.67 6.7 -0.34 3.4 0 0 Z " fill="#82471B" transform="translate(173,190)"/>
<path d="M0 0 C3.5 0.1875 3.5 0.1875 5.5 1.1875 C5.5 1.8475 5.5 2.5075 5.5 3.1875 C4.51 3.1875 3.52 3.1875 2.5 3.1875 C2.17 7.8075 1.84 12.4275 1.5 17.1875 C0.51 17.1875 -0.48 17.1875 -1.5 17.1875 C-1.5 14.2175 -1.5 11.2475 -1.5 8.1875 C-3.15 7.8575 -4.8 7.5275 -6.5 7.1875 C-5.72988171 2.31008414 -5.38771874 0.28862779 0 0 Z " fill="#E25A23" transform="translate(158.5,261.8125)"/>
<path d="M0 0 C1.07765625 0.01804687 2.1553125 0.03609375 3.265625 0.0546875 C4.49539062 0.08949219 4.49539062 0.08949219 5.75 0.125 C5.42 0.785 5.09 1.445 4.75 2.125 C1.8203125 2.07617188 1.8203125 2.07617188 -1.109375 2.02734375 C-3.58999176 2.06969744 -3.58999176 2.06969744 -7.25 3.125 C-7.25 7.415 -7.25 11.705 -7.25 16.125 C-8.9 15.135 -10.55 14.145 -12.25 13.125 C-14.50328412 13.33143199 -14.50328412 13.33143199 -16.25 14.125 C-16.25 10.125 -16.25 10.125 -14.375 8.125 C-13.67375 7.465 -12.9725 6.805 -12.25 6.125 C-11.92 5.42375 -11.59 4.7225 -11.25 4 C-8.88800394 -0.4287426 -4.5275041 -0.098424 0 0 Z " fill="#6C1516" transform="translate(91.25,281.875)"/>
<path d="M0 0 C0.5775 0.639375 1.155 1.27875 1.75 1.9375 C3.98062401 3.98223868 5.07436391 4.58205199 8 5 C8.33 6.32 8.66 7.64 9 9 C7.68 9.33 6.36 9.66 5 10 C5.33 9.34 5.66 8.68 6 8 C1.85906302 7.79029441 1.85906302 7.79029441 -2 9 C-4.3329866 9.04022391 -6.66706666 9.04320247 -9 9 C-9 7.02 -9 5.04 -9 3 C-6.03 2.01 -3.06 1.02 0 0 Z " fill="#D06126" transform="translate(172,265)"/>
<path d="M0 0 C0.66 0 1.32 0 2 0 C3.30638221 5.48680529 2.49348996 9.01302008 0 14 C-0.66 14 -1.32 14 -2 14 C-2 13.34 -2 12.68 -2 12 C-3.32 12 -4.64 12 -6 12 C-6.33 9.36 -6.66 6.72 -7 4 C-6.34 3.67 -5.68 3.34 -5 3 C-4.34 3.33 -3.68 3.66 -3 4 C-2.67 3.34 -2.34 2.68 -2 2 C-1.34 1.34 -0.68 0.68 0 0 Z " fill="#F0781E" transform="translate(182,258)"/>
<path d="M0 0 C0.66 0 1.32 0 2 0 C3.125 1.6875 3.125 1.6875 4 4 C3.1875 6.3125 3.1875 6.3125 2 9 C1.6186926 11.32597511 1.27539746 13.65912158 1 16 C-1.64 16 -4.28 16 -7 16 C-7.73080266 14.02253397 -8.39421747 12.01927511 -9 10 C-8.67 9.34 -8.34 8.68 -8 8 C-7.71125 8.804375 -7.4225 9.60875 -7.125 10.4375 C-6.26737432 13.1326468 -6.26737432 13.1326468 -4 14 C-3.67 12.35 -3.34 10.7 -3 9 C-2.34 9.33 -1.68 9.66 -1 10 C-0.67 6.7 -0.34 3.4 0 0 Z M-5 2 C-4.01 2.33 -3.02 2.66 -2 3 C-2 3.66 -2 4.32 -2 5 C-2.804375 5.12375 -3.60875 5.2475 -4.4375 5.375 C-5.7059375 5.684375 -5.7059375 5.684375 -7 6 C-7.33 6.66 -7.66 7.32 -8 8 C-7.42655063 5.13275314 -7.1385485 4.1385485 -5 2 Z " fill="#E77229" transform="translate(202,254)"/>
<path d="M0 0 C0.99 0 1.98 0 3 0 C3.30136986 9.04109589 3.30136986 9.04109589 1 12 C-1.3125 13.875 -1.3125 13.875 -4 15 C-6.8125 14.1875 -6.8125 14.1875 -9 13 C-8.67 12.01 -8.34 11.02 -8 10 C-7.04867187 9.53980469 -7.04867187 9.53980469 -6.078125 9.0703125 C-3.46891942 7.72647354 -2.94242769 6.5153756 -1.75 3.875 C-1.41484375 3.15054688 -1.0796875 2.42609375 -0.734375 1.6796875 C-0.49203125 1.12539062 -0.2496875 0.57109375 0 0 Z " fill="#B52427" transform="translate(81,241)"/>
<path d="M0 0 C0.66 0.33 1.32 0.66 2 1 C1.67 2.98 1.34 4.96 1 7 C0.34 7 -0.32 7 -1 7 C-1.433125 7.8971875 -1.433125 7.8971875 -1.875 8.8125 C-3 11 -3 11 -5 14 C-5.4603764 17.19806665 -5.4603764 17.19806665 -5.625 20.6875 C-5.69976562 21.86699219 -5.77453125 23.04648437 -5.8515625 24.26171875 C-5.90054688 25.16535156 -5.94953125 26.06898438 -6 27 C-7.98 27.33 -9.96 27.66 -12 28 C-10.25 22.25 -10.25 22.25 -8 20 C-8.32198966 16.90073181 -8.32198966 16.90073181 -9 14 C-10.65 14 -12.3 14 -14 14 C-14 13.67 -14 13.34 -14 13 C-13.43410156 12.89042969 -12.86820313 12.78085937 -12.28515625 12.66796875 C-11.55167969 12.50941406 -10.81820312 12.35085938 -10.0625 12.1875 C-9.33160156 12.03667969 -8.60070312 11.88585937 -7.84765625 11.73046875 C-7.23792969 11.48941406 -6.62820312 11.24835938 -6 11 C-5.67 10.01 -5.34 9.02 -5 8 C-2.4375 6.8125 -2.4375 6.8125 0 6 C0 4.02 0 2.04 0 0 Z " fill="#B5612A" transform="translate(188,266)"/>
<path d="M0 0 C0.66 0 1.32 0 2 0 C2.33 2.31 2.66 4.62 3 7 C4.65 7.33 6.3 7.66 8 8 C8 18.56 8 29.12 8 40 C7.67 40 7.34 40 7 40 C7 31.09 7 22.18 7 13 C6.01 13 5.02 13 4 13 C3.67 12.34 3.34 11.68 3 11 C1.68 11 0.36 11 -1 11 C-1.66 11.66 -2.32 12.32 -3 13 C-3 11.35 -3 9.7 -3 8 C-2.01 8 -1.02 8 0 8 C0 5.36 0 2.72 0 0 Z " fill="#AB2629" transform="translate(92,197)"/>
<path d="M0 0 C0.33 1.32 0.66 2.64 1 4 C0.01 4 -0.98 4 -2 4 C-2 5.32 -2 6.64 -2 8 C-4.31 8.33 -6.62 8.66 -9 9 C-8.67 10.98 -8.34 12.96 -8 15 C-8.66 15 -9.32 15 -10 15 C-10.13504138 13.06440687 -10.23201129 11.126128 -10.3125 9.1875 C-10.37050781 8.10855469 -10.42851563 7.02960938 -10.48828125 5.91796875 C-10 3 -10 3 -7.65625 1.125 C-4.85860429 -0.05988524 -3.00317448 -0.25741496 0 0 Z " fill="#AF1D22" transform="translate(78,240)"/>
<path d="M0 0 C0.99 0 1.98 0 3 0 C3 2.97 3 5.94 3 9 C4.98 9 6.96 9 9 9 C9.33 17.58 9.66 26.16 10 35 C7.69 35 5.38 35 3 35 C3 34.67 3 34.34 3 34 C4.65 34 6.3 34 8 34 C8 26.08 8 18.16 8 10 C6.02 10 4.04 10 2 10 C-0.33333333 10 -2.66666667 10 -5 10 C-3.68 9.67 -2.36 9.34 -1 9 C-1.020625 7.700625 -1.04125 6.40125 -1.0625 5.0625 C-1.08399454 3.70834367 -1.07148199 2.35243917 -1 1 C-0.67 0.67 -0.34 0.34 0 0 Z " fill="#6E2114" transform="translate(206,202)"/>
<path d="M0 0 C1.32 0.33 2.64 0.66 4 1 C3.34 1 2.68 1 2 1 C2 3.64 2 6.28 2 9 C0.35 9 -1.3 9 -3 9 C-3 9.99 -3 10.98 -3 12 C-2.01 12 -1.02 12 0 12 C0 12.66 0 13.32 0 14 C-0.99 14 -1.98 14 -3 14 C-3 21.59 -3 29.18 -3 37 C-3.33 37 -3.66 37 -4 37 C-5.1922117 27.33456945 -5.09622024 17.71824449 -5 8 C-3.35 8 -1.7 8 0 8 C0 5.36 0 2.72 0 0 Z " fill="#C37734" transform="translate(156,186)"/>
<path d="M0 0 C0.99 1.32 1.98 2.64 3 4 C1.35 4.33 -0.3 4.66 -2 5 C-1.67 5.66 -1.34 6.32 -1 7 C-0.95977609 9.3329866 -0.95679753 11.66706666 -1 14 C-1.66 14 -2.32 14 -3 14 C-3.33 13.34 -3.66 12.68 -4 12 C-6.31 12.33 -8.62 12.66 -11 13 C-11.33 13.99 -11.66 14.98 -12 16 C-12.66 16 -13.32 16 -14 16 C-13.3125 13.5625 -13.3125 13.5625 -12 11 C-9.375 10.1875 -9.375 10.1875 -7 10 C-6.7834375 8.824375 -6.7834375 8.824375 -6.5625 7.625 C-6 5 -6 5 -5 3 C-3.35857037 1.9590934 -1.69287785 0.95495674 0 0 Z " fill="#DA3A1F" transform="translate(222,241)"/>
<path d="M0 0 C0.33 0.66 0.66 1.32 1 2 C0.01 2 -0.98 2 -2 2 C-2 3.98 -2 5.96 -2 8 C-2.66 8 -3.32 8 -4 8 C-4 11.96 -4 15.92 -4 20 C-5.65 20 -7.3 20 -9 20 C-9 22.31 -9 24.62 -9 27 C-10.32 27.33 -11.64 27.66 -13 28 C-13 25.03 -13 22.06 -13 19 C-12.67 19 -12.34 19 -12 19 C-12 21.31 -12 23.62 -12 26 C-11.34 26 -10.68 26 -10 26 C-10 23.36 -10 20.72 -10 18 C-8.68 18 -7.36 18 -6 18 C-5.67 12.39 -5.34 6.78 -5 1 C-3.35 0.67 -1.7 0.34 0 0 Z " fill="#7A1E20" transform="translate(121,271)"/>
<path d="M0 0 C0.33 0.66 0.66 1.32 1 2 C0.67 2.66 0.34 3.32 0 4 C-0.0716735 6.55157655 -0.09308442 9.07472971 -0.0625 11.625 C-0.05573242 12.68460937 -0.05573242 12.68460937 -0.04882812 13.765625 C-0.03703875 15.51045275 -0.01910324 17.255237 0 19 C-0.66 19 -1.32 19 -2 19 C-2.33 15.04 -2.66 11.08 -3 7 C-3.33 11.29 -3.66 15.58 -4 20 C-3.34 20.33 -2.68 20.66 -2 21 C-3.98 21.99 -3.98 21.99 -6 23 C-5.67 21.35 -5.34 19.7 -5 18 C-5.66 18 -6.32 18 -7 18 C-7.68319814 11.85121672 -7.39114425 8.86993637 -3.5 3.9375 C-2.35379995 2.60708923 -1.19363163 1.28802597 0 0 Z " fill="#6D0A09" transform="translate(91,247)"/>
<path d="M0 0 C2.97 0 5.94 0 9 0 C9 5.94 9 11.88 9 18 C10.65 18 12.3 18 14 18 C13.67 18.99 13.34 19.98 13 21 C13 20.34 13 19.68 13 19 C11.35 19 9.7 19 8 19 C7 12.25 7 12.25 7 10 C5.02 10 3.04 10 1 10 C2.32 9.67 3.64 9.34 5 9 C5 7.02 5 5.04 5 3 C3.35 3 1.7 3 0 3 C0 2.01 0 1.02 0 0 Z M6 2 C6 4.31 6 6.62 6 9 C6.33 9 6.66 9 7 9 C7 6.69 7 4.38 7 2 C6.67 2 6.34 2 6 2 Z " fill="#8E2D23" transform="translate(127,270)"/>
<path d="M0 0 C2.64 0.66 5.28 1.32 8 2 C8 9.92 8 17.84 8 26 C7.67 26 7.34 26 7 26 C6.67 19.4 6.34 12.8 6 6 C4.35 6.33 2.7 6.66 1 7 C1 5.68 1 4.36 1 3 C-0.32 3 -1.64 3 -3 3 C-3.33 5.97 -3.66 8.94 -4 12 C-4.33 12 -4.66 12 -5 12 C-5 8.7 -5 5.4 -5 2 C-3.35 2 -1.7 2 0 2 C0 1.34 0 0.68 0 0 Z " fill="#D2462C" transform="translate(206,210)"/>
<path d="M0 0 C0.33 0.66 0.66 1.32 1 2 C1.66 2.33 2.32 2.66 3 3 C1.700625 3.7425 1.700625 3.7425 0.375 4.5 C-2.47213958 6.35566509 -4.13607317 8.40043573 -6.0625 11.1875 C-8.6601575 14.88179391 -8.6601575 14.88179391 -11.875 16 C-12.57625 16 -13.2775 16 -14 16 C-13.34 14.68 -12.68 13.36 -12 12 C-11.34 12 -10.68 12 -10 12 C-9.01 9.03 -8.02 6.06 -7 3 C-6.030625 2.87625 -5.06125 2.7525 -4.0625 2.625 C-2.5465625 2.315625 -2.5465625 2.315625 -1 2 C-0.67 1.34 -0.34 0.68 0 0 Z " fill="#A42122" transform="translate(93,242)"/>
<path d="M0 0 C2.31 0.33 4.62 0.66 7 1 C7 3.64 7 6.28 7 9 C4.03 9 1.06 9 -2 9 C-1.41196203 5.97580475 -0.77321882 2.98241547 0 0 Z " fill="#AB1D20" transform="translate(76,228)"/>
<path d="M0 0 C0.33 0 0.66 0 1 0 C1.33 2.97 1.66 5.94 2 9 C3.1446875 8.505 3.1446875 8.505 4.3125 8 C7 7 7 7 10 7 C10 7.99 10 8.98 10 10 C8 12 8 12 6 13 C5.34 12.67 4.68 12.34 4 12 C4 12.66 4 13.32 4 14 C1.36 14.33 -1.28 14.66 -4 15 C-3.34 14.67 -2.68 14.34 -2 14 C-2.02320313 13.15695313 -2.04640625 12.31390625 -2.0703125 11.4453125 C-2.08835938 10.34960938 -2.10640625 9.25390625 -2.125 8.125 C-2.14820313 7.03445312 -2.17140625 5.94390625 -2.1953125 4.8203125 C-2 2 -2 2 0 0 Z " fill="#8D4A18" transform="translate(151,212)"/>
<path d="M0 0 C2.1640625 0.0234375 2.1640625 0.0234375 4.625 0.375 C5.85089844 0.54128906 5.85089844 0.54128906 7.1015625 0.7109375 C7.72804687 0.80632812 8.35453125 0.90171875 9 1 C9 1.99 9 2.98 9 4 C7.02 4 5.04 4 3 4 C3.25561323 6.3431213 3.59270772 8.67843403 4 11 C4.66 11.33 5.32 11.66 6 12 C5.67 13.32 5.34 14.64 5 16 C2.29260594 11.42543762 0.0085765 6.92101242 -2 2 C-1.34 1.34 -0.68 0.68 0 0 Z " fill="#E66A27" transform="translate(123,230)"/>
<path d="M0 0 C1.32 0 2.64 0 4 0 C4 2.64 4 5.28 4 8 C5.65 8 7.3 8 9 8 C9 8.33 9 8.66 9 9 C4.71 9 0.42 9 -4 9 C-4 11.97 -4 14.94 -4 18 C-4.66 17.67 -5.32 17.34 -6 17 C-5.67 14.03 -5.34 11.06 -5 8 C-3.35 8 -1.7 8 0 8 C0 5.36 0 2.72 0 0 Z " fill="#975523" transform="translate(140,205)"/>
<path d="M0 0 C0.86625 0.2784375 0.86625 0.2784375 1.75 0.5625 C4.20692525 1.04023546 5.64397534 0.75729364 8 0 C8 1.32 8 2.64 8 4 C8.66 4.33 9.32 4.66 10 5 C10 5.99 10 6.98 10 8 C6.7 7.67 3.4 7.34 0 7 C0 4.69 0 2.38 0 0 Z " fill="#CB591E" transform="translate(169,275)"/>
<path d="M0 0 C3.55007718 3.9050849 4.81819916 6.97734643 6 12 C7.65 12 9.3 12 11 12 C11 12.33 11 12.66 11 13 C6.545 13.495 6.545 13.495 2 14 C-0.11235422 9.77529156 -1.43303243 6.35074748 -0.5625 1.625 C-0.376875 1.08875 -0.19125 0.5525 0 0 Z " fill="#E35623" transform="translate(201,226)"/>
<path d="M0 0 C0.33 0 0.66 0 1 0 C1 11.88 1 23.76 1 36 C-0.98 36.495 -0.98 36.495 -3 37 C-3.66 34.36 -4.32 31.72 -5 29 C-3.515 29.99 -3.515 29.99 -2 31 C-0.8992924 27.6978772 -0.79372928 25.05916721 -0.68359375 21.58203125 C-0.64169922 20.32841797 -0.59980469 19.07480469 -0.55664062 17.78320312 C-0.51732422 16.47287109 -0.47800781 15.16253906 -0.4375 13.8125 C-0.39429008 12.47720022 -0.350675 11.14191348 -0.30664062 9.80664062 C-0.20043498 6.53786703 -0.09839003 3.26901667 0 0 Z " fill="#6D351C" transform="translate(198,186)"/>
<path d="M0 0 C1.98 0.99 1.98 0.99 4 2 C4 3.32 4 4.64 4 6 C5.32 6.33 6.64 6.66 8 7 C7.67 8.32 7.34 9.64 7 11 C7.90492188 10.96519531 7.90492188 10.96519531 8.828125 10.9296875 C10.02695313 10.90261719 10.02695313 10.90261719 11.25 10.875 C12.03890625 10.85179687 12.8278125 10.82859375 13.640625 10.8046875 C16.20731941 11.0171622 17.7916067 11.71345895 20 13 C19.67 13.66 19.34 14.32 19 15 C18.01 15 17.02 15 16 15 C16 14.34 16 13.68 16 13 C15.26394531 13.04382813 14.52789062 13.08765625 13.76953125 13.1328125 C10.58474208 13.12439826 8.04489468 12.96222093 5 12 C2.2014038 8.62626856 0 4.46839472 0 0 Z " fill="#BB3E14" transform="translate(202,226)"/>
<path d="M0 0 C1.98 0 3.96 0 6 0 C7.33257403 18.82004556 7.33257403 18.82004556 6 28 C6.66 28 7.32 28 8 28 C8 29.65 8 31.3 8 33 C6.68 33.66 5.36 34.32 4 35 C4.33 23.78 4.66 12.56 5 1 C3.35 1 1.7 1 0 1 C0 0.67 0 0.34 0 0 Z M6 30 C7 33 7 33 7 33 Z " fill="#3F0504" transform="translate(95,204)"/>
<path d="M0 0 C0.33 0 0.66 0 1 0 C1.33 3.3 1.66 6.6 2 10 C3.32 9.01 4.64 8.02 6 7 C6.66 7.33 7.32 7.66 8 8 C6.45594148 13.40420481 4.92956455 13.89202954 0 18 C0 12.06 0 6.12 0 0 Z " fill="#A52122" transform="translate(71,266)"/>
<path d="M0 0 C0.66 0 1.32 0 2 0 C2 3.63 2 7.26 2 11 C-1.3 11 -4.6 11 -8 11 C-7.67 9.02 -7.34 7.04 -7 5 C-6.01 5 -5.02 5 -4 5 C-2 7 -2 7 -1 9 C-0.34 9 0.32 9 1 9 C0.67 6.03 0.34 3.06 0 0 Z " fill="#EB4C26" transform="translate(146,268)"/>
<path d="M0 0 C2.76276177 0.52268466 5.3260876 1.10869587 8 2 C8 5.96 8 9.92 8 14 C7.67 14 7.34 14 7 14 C7 10.7 7 7.4 7 4 C5.9171875 4.495 5.9171875 4.495 4.8125 5 C1.98302573 6.00603529 -0.02895466 6.16977402 -3 6 C-3 5.34 -3 4.68 -3 4 C-2.34 4 -1.68 4 -1 4 C-0.67 2.68 -0.34 1.36 0 0 Z " fill="#D0502E" transform="translate(141,264)"/>
<path d="M0 0 C1.32 0.33 2.64 0.66 4 1 C3.67 1.99 3.34 2.98 3 4 C2.67 3.67 2.34 3.34 2 3 C1.67 4.32 1.34 5.64 1 7 C-0.65 7 -2.3 7 -4 7 C-4 14.92 -4 22.84 -4 31 C-4.33 31 -4.66 31 -5 31 C-5 22.42 -5 13.84 -5 5 C-3.35 5 -1.7 5 0 5 C0 3.35 0 1.7 0 0 Z " fill="#842627" transform="translate(59,233)"/>
<path d="M0 0 C1.98 0 3.96 0 6 0 C5.01 0.66 4.02 1.32 3 2 C2.49297483 4.12106795 2.49297483 4.12106795 2.48828125 6.5703125 C2.45283203 7.46621094 2.41738281 8.36210937 2.38085938 9.28515625 C2.35830078 10.22230469 2.33574219 11.15945312 2.3125 12.125 C2.27833984 13.06988281 2.24417969 14.01476562 2.20898438 14.98828125 C2.12635888 17.32540253 2.05726012 19.66214191 2 22 C1.34 22 0.68 22 0 22 C0 14.74 0 7.48 0 0 Z " fill="#A1451C" transform="translate(118,203)"/>
<path d="M0 0 C1.65 0 3.3 0 5 0 C5 6.27 5 12.54 5 19 C4.67 19 4.34 19 4 19 C3.87882813 18.14535156 3.75765625 17.29070312 3.6328125 16.41015625 C3.46523437 15.30542969 3.29765625 14.20070312 3.125 13.0625 C2.96257812 11.96035156 2.80015625 10.85820312 2.6328125 9.72265625 C2.42398438 8.82417969 2.21515625 7.92570313 2 7 C1.34 6.67 0.68 6.34 0 6 C-0.6875 3.5 -0.6875 3.5 -1 1 C-0.67 0.67 -0.34 0.34 0 0 Z " fill="#E58A33" transform="translate(160,194)"/>
<path d="M0 0 C3.96 0 7.92 0 12 0 C12 0.99 12 1.98 12 3 C10.68 3.33 9.36 3.66 8 4 C7.67 6.64 7.34 9.28 7 12 C6.34 12 5.68 12 5 12 C5 9.03 5 6.06 5 3 C3.35 3 1.7 3 0 3 C0 2.01 0 1.02 0 0 Z " fill="#982627" transform="translate(71,301)"/>
<path d="M0 0 C10.55808656 0.77904328 10.55808656 0.77904328 15 3 C15 3.66 15 4.32 15 5 C14.34 5 13.68 5 13 5 C13 5.66 13 6.32 13 7 C12.01 7.495 12.01 7.495 11 8 C10.67 8.99 10.34 9.98 10 11 C9.34 10.67 8.68 10.34 8 10 C8.33 8.68 8.66 7.36 9 6 C9.99 6 10.98 6 12 6 C12 5.34 12 4.68 12 4 C10.7625 4.04125 9.525 4.0825 8.25 4.125 C4.98362038 4.13658291 2.7853053 3.8568702 0 2 C0 1.34 0 0.68 0 0 Z " fill="#C3561C" transform="translate(152,259)"/>
<path d="M0 0 C0 1.65 0 3.3 0 5 C-0.99 5 -1.98 5 -3 5 C-3.33 6.32 -3.66 7.64 -4 9 C-4.99 8.67 -5.98 8.34 -7 8 C-7.6875 5.6875 -7.6875 5.6875 -8 3 C-5.90994325 -0.36731366 -3.75103888 -0.30413829 0 0 Z " fill="#F06A1D" transform="translate(202,259)"/>
<path d="M0 0 C2.4294516 3.6441774 2.16179575 5.71241272 2 10 C5.465 9.505 5.465 9.505 9 9 C9 9.66 9 10.32 9 11 C8.236875 11.28875 7.47375 11.5775 6.6875 11.875 C3.84970692 12.96269013 3.84970692 12.96269013 1 15 C-1.42945561 11.35581659 -1.0828781 10.07076636 -0.625 5.8125 C-0.51414062 4.72582031 -0.40328125 3.63914063 -0.2890625 2.51953125 C-0.19367188 1.68808594 -0.09828125 0.85664063 0 0 Z " fill="#7C1211" transform="translate(86,230)"/>
<path d="M0 0 C0.66 0 1.32 0 2 0 C2 1.32 2 2.64 2 4 C5.60992379 3.34414811 5.60992379 3.34414811 9 2 C9 3.32 9 4.64 9 6 C5.7 6.66 2.4 7.32 -1 8 C-0.67 5.36 -0.34 2.72 0 0 Z " fill="#CD2623" transform="translate(90,232)"/>
<path d="M0 0 C0.33 0 0.66 0 1 0 C1 3.3 1 6.6 1 10 C-0.65 10 -2.3 10 -4 10 C-4.625 8.1875 -4.625 8.1875 -5 6 C-4.34 5.01 -3.68 4.02 -3 3 C-2.34 3 -1.68 3 -1 3 C-0.67 2.01 -0.34 1.02 0 0 Z " fill="#E95A21" transform="translate(212,255)"/>
<path d="M0 0 C0.33 0 0.66 0 1 0 C1.12375 1.134375 1.2475 2.26875 1.375 3.4375 C1.58125 4.613125 1.7875 5.78875 2 7 C2.66 7.33 3.32 7.66 4 8 C4 12.29 4 16.58 4 21 C2.68 20.67 1.36 20.34 0 20 C0.99 20 1.98 20 3 20 C3 16.37 3 12.74 3 9 C2.01 9 1.02 9 0 9 C-0.33 9.66 -0.66 10.32 -1 11 C-1.33 10.67 -1.66 10.34 -2 10 C-3.34747084 9.76924918 -4.70377565 9.58846937 -6.0625 9.4375 C-7.361875 9.293125 -8.66125 9.14875 -10 9 C-10 8.67 -10 8.34 -10 8 C-5.545 7.505 -5.545 7.505 -1 7 C-0.67 4.69 -0.34 2.38 0 0 Z " fill="#C1C1C1" transform="translate(386,241)"/>
<path d="M0 0 C2.86724686 0.57344937 3.8614515 0.8614515 6 3 C6.125 5.625 6.125 5.625 6 8 C6.66 8 7.32 8 8 8 C8.33 9.65 8.66 11.3 9 13 C8.01 12.67 7.02 12.34 6 12 C5.67 9.69 5.34 7.38 5 5 C4.34 5 3.68 5 3 5 C2.67 5.99 2.34 6.98 2 8 C1.67 8 1.34 8 1 8 C0.67 5.36 0.34 2.72 0 0 Z " fill="#D37129" transform="translate(179,253)"/>
<path d="M0 0 C1.485 0.99 1.485 0.99 3 2 C4.65 2 6.3 2 8 2 C7.34 6.62 6.68 11.24 6 16 C5.67 16 5.34 16 5 16 C5 12.37 5 8.74 5 5 C3.35 4.67 1.7 4.34 0 4 C0 2.68 0 1.36 0 0 Z " fill="#DD5226" transform="translate(169,287)"/>
<path d="M0 0 C0.66 0.33 1.32 0.66 2 1 C2.02689216 2.47906892 2.04634621 3.95827483 2.0625 5.4375 C2.07410156 6.26121094 2.08570313 7.08492188 2.09765625 7.93359375 C2 10 2 10 1 11 C-0.66617115 11.04063832 -2.33388095 11.042721 -4 11 C-4 13.64 -4 16.28 -4 19 C-5.32 18.67 -6.64 18.34 -8 18 C-7.01 18 -6.02 18 -5 18 C-5 15.36 -5 12.72 -5 10 C-3.35 9.67 -1.7 9.34 0 9 C0 6.03 0 3.06 0 0 Z " fill="#992820" transform="translate(148,278)"/>
<path d="M0 0 C0.1875 2.875 0.1875 2.875 0 6 C-3 8 -3 8 -6 8 C-6 5.69 -6 3.38 -6 1 C-1.125 0 -1.125 0 0 0 Z " fill="#F3871E" transform="translate(175,202)"/>
<path d="M0 0 C0.99 0 1.98 0 3 0 C3 3.63 3 7.26 3 11 C-1.76132597 6.69944751 -1.76132597 6.69944751 -2 3 C-1.34 2.01 -0.68 1.02 0 0 Z " fill="#932527" transform="translate(81,287)"/>
<path d="M0 0 C0.33 0 0.66 0 1 0 C1 4.29 1 8.58 1 13 C-0.98 13.33 -2.96 13.66 -5 14 C-3.25 8.25 -3.25 8.25 -1 6 C-0.60235737 4.01178687 -0.26224651 2.01055661 0 0 Z " fill="#AE4A24" transform="translate(181,280)"/>
<path d="M0 0 C1.98 0.99 1.98 0.99 4 2 C4 2.66 4 3.32 4 4 C4.639375 4.185625 5.27875 4.37125 5.9375 4.5625 C8 6 8 6 8.75 9.625 C8.87375 11.295625 8.87375 11.295625 9 13 C8.401875 12.236875 7.80375 11.47375 7.1875 10.6875 C5.53040668 8.6516425 3.89702326 6.8021721 2 5 C1.01 5.495 1.01 5.495 0 6 C0 4.02 0 2.04 0 0 Z " fill="#A44E1C" transform="translate(185,255)"/>
<path d="M0 0 C0 3.98593259 -0.98795987 5.91299393 -3.6875 8.8125 C-7.01128104 10.51930648 -9.43399768 9.75434664 -13 9 C-13.66 7.35 -14.32 5.7 -15 4 C-13.35 3.67 -11.7 3.34 -10 3 C-10.66 4.32 -11.32 5.64 -12 7 C-9.42385222 7.95412881 -8.08323761 8.01981848 -5.375 7.375 C-2.39611671 5.65038336 -1.99143618 4.2221676 -1 1 C-0.67 0.67 -0.34 0.34 0 0 Z " fill="#670B05" transform="translate(85,247)"/>
<path d="M0 0 C0.33 0 0.66 0 1 0 C1.086985 3.77068832 1.14038579 7.54111932 1.1875 11.3125 C1.21263672 12.38435547 1.23777344 13.45621094 1.26367188 14.56054688 C1.27333984 15.58857422 1.28300781 16.61660156 1.29296875 17.67578125 C1.3086792 18.62364502 1.32438965 19.57150879 1.34057617 20.5480957 C0.94475643 23.39771408 0.22175281 24.24976105 -2 26 C-2.04241723 23.66705225 -2.04092937 21.33297433 -2 19 C-1.67 18.67 -1.34 18.34 -1 18 C-0.84417697 16.65984779 -0.74955858 15.31241097 -0.68359375 13.96484375 C-0.62075195 12.75151367 -0.62075195 12.75151367 -0.55664062 11.51367188 C-0.51732422 10.66353516 -0.47800781 9.81339844 -0.4375 8.9375 C-0.39431641 8.08349609 -0.35113281 7.22949219 -0.30664062 6.34960938 C-0.20023298 4.23327963 -0.09958269 2.11666187 0 0 Z " fill="#5D0D0B" transform="translate(70,261)"/>
<path d="M0 0 C1.04027344 -0.01417969 2.08054687 -0.02835938 3.15234375 -0.04296875 C6.0625 0.1875 6.0625 0.1875 10.0625 2.1875 C7.0925 2.1875 4.1225 2.1875 1.0625 2.1875 C1.0625 2.8475 1.0625 3.5075 1.0625 4.1875 C0.4025 4.1875 -0.2575 4.1875 -0.9375 4.1875 C-0.9375 3.1975 -0.9375 2.2075 -0.9375 1.1875 C-1.68 1.496875 -2.4225 1.80625 -3.1875 2.125 C-5.44442176 2.9969925 -7.5825153 3.66417007 -9.9375 4.1875 C-9.6075 3.1975 -9.2775 2.2075 -8.9375 1.1875 C-5.74593552 0.12364517 -3.35252524 0.02072018 0 0 Z " fill="#D5D5D9" transform="translate(408.9375,239.8125)"/>
<path d="M0 0 C0.33 0.99 0.66 1.98 1 3 C3.01508358 3.73323796 3.01508358 3.73323796 5 4 C2.8125 5.625 2.8125 5.625 0 7 C-2.8125 6.1875 -2.8125 6.1875 -5 5 C-4 2 -4 2 -1.9375 0.8125 C-1.298125 0.544375 -0.65875 0.27625 0 0 Z " fill="#9E2124" transform="translate(77,249)"/>
<path d="M0 0 C0.99 0.33 1.98 0.66 3 1 C3 3.97 3 6.94 3 10 C0 10 0 10 -2 9 C-1.125 1.125 -1.125 1.125 0 0 Z " fill="#6E1A19" transform="translate(76,217)"/>
<path d="M0 0 C2.31 0 4.62 0 7 0 C7 1.65 7 3.3 7 5 C5.02 5 3.04 5 1 5 C0.67 3.35 0.34 1.7 0 0 Z " fill="#F16D1F" transform="translate(206,265)"/>
<path d="M0 0 C1.5 1.375 1.5 1.375 3 3 C3 3.66 3 4.32 3 5 C4.32 5.33 5.64 5.66 7 6 C7 6.66 7 7.32 7 8 C4.19637237 8.22732116 2.53813483 8.34081872 0.125 6.8125 C-1 5 -1 5 -0.6875 2.3125 C-0.460625 1.549375 -0.23375 0.78625 0 0 Z " fill="#AE4A2A" transform="translate(221,256)"/>
<path d="M0 0 C0.66 0 1.32 0 2 0 C2.38133299 1.9914056 2.71325582 3.99279077 3 6 C1.03177114 7.96822886 -2.34808709 7.66248381 -5 8 C-5.33 8.99 -5.66 9.98 -6 11 C-6.66 11 -7.32 11 -8 11 C-7.3125 8.5625 -7.3125 8.5625 -6 6 C-3.375 5.1875 -3.375 5.1875 -1 5 C-0.67 3.35 -0.34 1.7 0 0 Z " fill="#C44717" transform="translate(216,246)"/>
<path d="M0 0 C0.33 0 0.66 0 1 0 C1.02712153 1.916588 1.04645097 3.8332873 1.0625 5.75 C1.07410156 6.81734375 1.08570312 7.8846875 1.09765625 8.984375 C1.01510087 11.53368501 0.74617558 13.57933591 0 16 C-1.65 16 -3.3 16 -5 16 C-4.54625 15.401875 -4.0925 14.80375 -3.625 14.1875 C-1.31474971 9.6558552 -0.74391192 4.99733773 0 0 Z " fill="#90201F" transform="translate(67,279)"/>
<path d="M0 0 C2.97 0 5.94 0 9 0 C8.67 2.97 8.34 5.94 8 9 C7.67 9 7.34 9 7 9 C7 6.69 7 4.38 7 2 C4.69 2.33 2.38 2.66 0 3 C0 2.01 0 1.02 0 0 Z " fill="#AB371B" transform="translate(127,270)"/>
<path d="M0 0 C1.00516936 2.55861291 1.16192618 3.62217225 0.0625 6.1875 C-3.07070005 8.94091823 -5.88549733 8.73019655 -10 9 C-10 8.34 -10 7.68 -10 7 C-6.535 6.505 -6.535 6.505 -3 6 C-3 4.68 -3 3.36 -3 2 C-2.01 2 -1.02 2 0 2 C0 1.34 0 0.68 0 0 Z " fill="#8A1915" transform="translate(79,242)"/>
<path d="M0 0 C0.66 0 1.32 0 2 0 C2 0.66 2 1.32 2 2 C3.32 2.66 4.64 3.32 6 4 C5.34 5.65 4.68 7.3 4 9 C1 9 1 9 -2 8 C-2 7.34 -2 6.68 -2 6 C-0.68 5.34 0.64 4.68 2 4 C1.34 2.68 0.68 1.36 0 0 Z " fill="#9F2D19" transform="translate(222,240)"/>
<path d="M0 0 C4.62 0 9.24 0 14 0 C14 0.33 14 0.66 14 1 C13.07767578 1.07347656 13.07767578 1.07347656 12.13671875 1.1484375 C11.32847656 1.22320312 10.52023437 1.29796875 9.6875 1.375 C8.48673828 1.47941406 8.48673828 1.47941406 7.26171875 1.5859375 C4.72775559 1.89564426 4.72775559 1.89564426 2 4 C1.27617533 6.05925139 1.27617533 6.05925139 1 8 C1.66 8.33 2.32 8.66 3 9 C2.01 9 1.02 9 0 9 C0 6.03 0 3.06 0 0 Z " fill="#919191" transform="translate(328,229)"/>
<path d="M0 0 C0.99 0.33 1.98 0.66 3 1 C3 3.31 3 5.62 3 8 C1.68 8.33 0.36 8.66 -1 9 C-1.09765625 2.84765625 -1.09765625 2.84765625 -1 1 C-0.67 0.67 -0.34 0.34 0 0 Z " fill="#8D2721" transform="translate(109,209)"/>
<path d="M0 0 C0.99 0.33 1.98 0.66 3 1 C3 1.66 3 2.32 3 3 C2.195625 3.12375 1.39125 3.2475 0.5625 3.375 C-0.7059375 3.684375 -0.7059375 3.684375 -2 4 C-2.33 4.66 -2.66 5.32 -3 6 C-2.42655063 3.13275314 -2.1385485 2.1385485 0 0 Z M-4 6 C-3.01 6.495 -3.01 6.495 -2 7 C-1.855625 7.639375 -1.71125 8.27875 -1.5625 8.9375 C-1.13834965 11.38210855 -1.13834965 11.38210855 2 13 C0.68 13.33 -0.64 13.66 -2 14 C-4 8.25 -4 8.25 -4 6 Z " fill="#E06A25" transform="translate(197,256)"/>
<path d="M0 0 C0.99 0 1.98 0 3 0 C3 2.97 3 5.94 3 9 C2.01 9.33 1.02 9.66 0 10 C0 6.7 0 3.4 0 0 Z " fill="#CD773A" transform="translate(206,290)"/>
<path d="M0 0 C0.99 0.33 1.98 0.66 3 1 C2.67 3.97 2.34 6.94 2 10 C1.01 10 0.02 10 -1 10 C-1.02689216 8.52093108 -1.04634621 7.04172517 -1.0625 5.5625 C-1.07410156 4.73878906 -1.08570312 3.91507813 -1.09765625 3.06640625 C-1 1 -1 1 0 0 Z " fill="#A6572B" transform="translate(125,193)"/>
<path d="M0 0 C0.99 0 1.98 0 3 0 C3 2.64 3 5.28 3 8 C4.32 8.33 5.64 8.66 7 9 C5.35 9 3.7 9 2 9 C1.67 8.01 1.34 7.02 1 6 C0.34 5.67 -0.32 5.34 -1 5 C-0.67 3.35 -0.34 1.7 0 0 Z " fill="#9C4922" transform="translate(190,178)"/>
<path d="M0 0 C2.0625 0.4375 2.0625 0.4375 4 1 C4.33 2.65 4.66 4.3 5 6 C2.69 5.67 0.38 5.34 -2 5 C-1.125 1.125 -1.125 1.125 0 0 Z " fill="#E76022" transform="translate(166,268)"/>
<path d="M0 0 C0.33 0 0.66 0 1 0 C1 3.3 1 6.6 1 10 C-1.0625 8.25 -1.0625 8.25 -3 6 C-2.82246387 2.98188578 -2.16264785 2.16264785 0 0 Z " fill="#D32D2C" transform="translate(115,272)"/>
<path d="M0 0 C0.33 0 0.66 0 1 0 C1.04898438 0.91523438 1.09796875 1.83046875 1.1484375 2.7734375 C1.22320312 3.96195312 1.29796875 5.15046875 1.375 6.375 C1.44460937 7.55835938 1.51421875 8.74171875 1.5859375 9.9609375 C1.70217346 13.10562319 1.70217346 13.10562319 4 15 C2.68 15.99 1.36 16.98 0 18 C0 12.06 0 6.12 0 0 Z " fill="#962524" transform="translate(71,266)"/>
<path d="M0 0 C0.66 0.99 1.32 1.98 2 3 C1.67 3.99 1.34 4.98 1 6 C-0.32 6.33 -1.64 6.66 -3 7 C-3.33 10.3 -3.66 13.6 -4 17 C-4.33 17 -4.66 17 -5 17 C-5 13.37 -5 9.74 -5 6 C-3.68 5.34 -2.36 4.68 -1 4 C-0.19471111 1.94999129 -0.19471111 1.94999129 0 0 Z " fill="#DC782F" transform="translate(205,266)"/>
<path d="M0 0 C1.76462683 3.08809695 2 4.23312136 2 8 C2.66 8.33 3.32 8.66 4 9 C3.67 10.32 3.34 11.64 3 13 C-0.875 6.375 -0.875 6.375 -2 3 C-1.34 2.01 -0.68 1.02 0 0 Z " fill="#ED5722" transform="translate(125,233)"/>
<path d="M0 0 C0.33 0 0.66 0 1 0 C1.144375 1.11375 1.28875 2.2275 1.4375 3.375 C1.78372035 6.82142047 1.78372035 6.82142047 3 9 C3.66 9.33 4.32 9.66 5 10 C4.34 10 3.68 10 3 10 C2.34 11.32 1.68 12.64 1 14 C-1.02907167 10.6853333 -1.12742133 8.5684021 -0.625 4.75 C-0.51414063 3.85796875 -0.40328125 2.9659375 -0.2890625 2.046875 C-0.19367188 1.37140625 -0.09828125 0.6959375 0 0 Z " fill="#A73310" transform="translate(200,212)"/>
<path d="M0 0 C0 0.33 0 0.66 0 1 C-1.98 1 -3.96 1 -6 1 C-6 1.66 -6 2.32 -6 3 C-5.34 3 -4.68 3 -4 3 C-4 3.99 -4 4.98 -4 6 C-6.31 5.34 -8.62 4.68 -11 4 C-7.65667474 -0.27945633 -5.29105716 -0.4070044 0 0 Z " fill="#E48126" transform="translate(182,210)"/>
<path d="M0 0 C0.33 0.99 0.66 1.98 1 3 C2.65 3 4.3 3 6 3 C6 4.98 6 6.96 6 9 C5.34 9 4.68 9 4 9 C3.34 7.35 2.68 5.7 2 4 C1.34 4 0.68 4 0 4 C0 2.68 0 1.36 0 0 Z " fill="#DD4826" transform="translate(126,270)"/>
<path d="M0 0 C0.33 0.99 0.66 1.98 1 3 C-1.64 3.99 -4.28 4.98 -7 6 C-7.33 5.34 -7.66 4.68 -8 4 C-7.01 4 -6.02 4 -5 4 C-5 3.01 -5 2.02 -5 1 C-2 0 -2 0 0 0 Z " fill="#E7552B" transform="translate(152,259)"/>
<path d="M0 0 C1.76462683 3.08809695 2 4.23312136 2 8 C0.68 8.33 -0.64 8.66 -2 9 C-2.66 6.36 -3.32 3.72 -4 1 C-2.515 1.99 -2.515 1.99 -1 3 C-0.67 2.01 -0.34 1.02 0 0 Z " fill="#AD3A17" transform="translate(197,214)"/>
<path d="M0 0 C0.33 0.66 0.66 1.32 1 2 C0.01 2 -0.98 2 -2 2 C-2 3.98 -2 5.96 -2 8 C-2.99 7.67 -3.98 7.34 -5 7 C-5 5.02 -5 3.04 -5 1 C-3.35 0.67 -1.7 0.34 0 0 Z " fill="#850F0E" transform="translate(121,271)"/>
<path d="M0 0 C1.41623216 -0.05447047 2.83308191 -0.09300508 4.25 -0.125 C5.03890625 -0.14820313 5.8278125 -0.17140625 6.640625 -0.1953125 C9.20731941 0.0171622 10.7916067 0.71345895 13 2 C12.67 2.66 12.34 3.32 12 4 C11.01 4 10.02 4 9 4 C9 3.34 9 2.68 9 2 C6.03 1.67 3.06 1.34 0 1 C0 0.67 0 0.34 0 0 Z " fill="#AD4928" transform="translate(209,237)"/>
<path d="M0 0 C1.32 0 2.64 0 4 0 C3.67 1.98 3.34 3.96 3 6 C1.68 6 0.36 6 -1 6 C-0.67 4.02 -0.34 2.04 0 0 Z " fill="#E4361B" transform="translate(203,213)"/>
<path d="M0 0 C0 2.31 0 4.62 0 7 C-1.98 7 -3.96 7 -6 7 C-4.68 6.67 -3.36 6.34 -2 6 C-2.7763932 2.9254644 -2.7763932 2.9254644 -5 1 C-3 0 -3 0 0 0 Z " fill="#C1682F" transform="translate(182,201)"/>
<path d="M0 0 C0.99 0 1.98 0 3 0 C2.5020163 3.73487777 2.12508244 5.81237635 0 9 C-0.84454356 5.62182575 -1.10844919 3.32534757 0 0 Z " fill="#A51A1E" transform="translate(73,286)"/>
<path d="M0 0 C0.66 0 1.32 0 2 0 C3.35439668 2.70879335 3.06501451 5.00933268 3 8 C2.01 8 1.02 8 0 8 C0 5.36 0 2.72 0 0 Z " fill="#C66D40" transform="translate(157,271)"/>
<path d="M0 0 C1.65 0.33 3.3 0.66 5 1 C5 1.66 5 2.32 5 3 C3.1875 4.0625 3.1875 4.0625 1 5 C0.01 4.67 -0.98 4.34 -2 4 C-1.34 2.68 -0.68 1.36 0 0 Z " fill="#BF3014" transform="translate(141,264)"/>
<path d="M0 0 C2 2 2 2 2 5 C1.34 5 0.68 5 0 5 C0 5.99 0 6.98 0 8 C-0.99 7.67 -1.98 7.34 -3 7 C-3.33 6.01 -3.66 5.02 -4 4 C-3.01 3.67 -2.02 3.34 -1 3 C-0.67 2.01 -0.34 1.02 0 0 Z " fill="#E56821" transform="translate(190,184)"/>
<path d="M0 0 C0.66 0 1.32 0 2 0 C2 2.64 2 5.28 2 8 C1.01 8 0.02 8 -1 8 C-0.67 5.36 -0.34 2.72 0 0 Z " fill="#C92F2C" transform="translate(141,288)"/>
<path d="M0 0 C0.99 0 1.98 0 3 0 C3 2.31 3 4.62 3 7 C2.01 7 1.02 7 0 7 C0 4.69 0 2.38 0 0 Z " fill="#E56628" transform="translate(169,275)"/>
<path d="M0 0 C0.99 0.33 1.98 0.66 3 1 C2.67 2.32 2.34 3.64 2 5 C2.99 5 3.98 5 5 5 C5 5.66 5 6.32 5 7 C3.35 7 1.7 7 0 7 C0 4.69 0 2.38 0 0 Z " fill="#C02E28" transform="translate(119,273)"/>
<path d="M0 0 C-0.33 1.65 -0.66 3.3 -1 5 C-3.5 3.625 -3.5 3.625 -6 2 C-6 1.34 -6 0.68 -6 0 C-3.50907189 -1.24546405 -2.58919267 -0.7767578 0 0 Z " fill="#F1701B" transform="translate(195,257)"/>
<path d="M0 0 C1.32 0.33 2.64 0.66 4 1 C4 1.99 4 2.98 4 4 C2.68 4 1.36 4 0 4 C0 4.66 0 5.32 0 6 C-0.66 5.67 -1.32 5.34 -2 5 C-1.34 3.35 -0.68 1.7 0 0 Z " fill="#E77522" transform="translate(176,203)"/>
<path d="M0 0 C-0.33 2.64 -0.66 5.28 -1 8 C-1.33 8 -1.66 8 -2 8 C-2 6.02 -2 4.04 -2 2 C-4.64 2 -7.28 2 -10 2 C-10 1.67 -10 1.34 -10 1 C-6.56484998 0.37542727 -3.50935186 0 0 0 Z " fill="#E05126" transform="translate(138,268)"/>
<path d="M0 0 C3.63 0 7.26 0 11 0 C11 0.33 11 0.66 11 1 C10.06027344 1.19916016 10.06027344 1.19916016 9.1015625 1.40234375 C7.87566406 1.66724609 7.87566406 1.66724609 6.625 1.9375 C5.81289062 2.11152344 5.00078125 2.28554688 4.1640625 2.46484375 C1.970537 2.92330693 1.970537 2.92330693 0 4 C0 2.68 0 1.36 0 0 Z " fill="#A12523" transform="translate(71,261)"/>
<path d="M0 0 C2.97 0.495 2.97 0.495 6 1 C6 1.99 6 2.98 6 4 C4.35 4 2.7 4 1 4 C0.67 2.68 0.34 1.36 0 0 Z " fill="#E35E23" transform="translate(209,248)"/>
<path d="M0 0 C1.32 0.33 2.64 0.66 4 1 C3.67 1.99 3.34 2.98 3 4 C2.67 3.67 2.34 3.34 2 3 C1.67 3.99 1.34 4.98 1 6 C-0.98 6 -2.96 6 -5 6 C-5 5.67 -5 5.34 -5 5 C-3.35 5 -1.7 5 0 5 C0 3.35 0 1.7 0 0 Z " fill="#45131A" transform="translate(59,233)"/>
<path d="M0 0 C0.66 0.33 1.32 0.66 2 1 C1.67 1.99 1.34 2.98 1 4 C-0.98 4 -2.96 4 -5 4 C-5 3.34 -5 2.68 -5 2 C-2.625 0.9375 -2.625 0.9375 0 0 Z " fill="#971D19" transform="translate(108,232)"/>
<path d="M0 0 C0.66 0 1.32 0 2 0 C2 1.32 2 2.64 2 4 C2.66 4 3.32 4 4 4 C4 4.66 4 5.32 4 6 C2.02 5.34 0.04 4.68 -2 4 C-1.34 2.68 -0.68 1.36 0 0 Z " fill="#E67520" transform="translate(185,251)"/>
<path d="M0 0 C0.66 0.99 1.32 1.98 2 3 C0.60804085 5.7839183 -1.15575779 5.97898997 -4 7 C-3.67 5.35 -3.34 3.7 -3 2 C-2.01 2.33 -1.02 2.66 0 3 C0 2.01 0 1.02 0 0 Z " fill="#C66F15" transform="translate(165,213)"/>
<path d="M0 0 C0.99 0.33 1.98 0.66 3 1 C3.6875 3.0625 3.6875 3.0625 4 5 C3.38125 4.814375 2.7625 4.62875 2.125 4.4375 C-0.04160178 3.76313824 -0.04160178 3.76313824 -2 5 C-2 3.68 -2 2.36 -2 1 C-1.34 0.67 -0.68 0.34 0 0 Z " fill="#871915" transform="translate(77,291)"/>
<path d="M0 0 C2.97 1.98 2.97 1.98 6 4 C5.01 4.495 5.01 4.495 4 5 C1.875 4.0625 1.875 4.0625 0 3 C0 3.66 0 4.32 0 5 C-0.66 4.67 -1.32 4.34 -2 4 C-1.34 2.68 -0.68 1.36 0 0 Z " fill="#D75C15" transform="translate(178,249)"/>
<path d="M0 0 C0 0.33 0 0.66 0 1 C-3.31114834 2.12880057 -6.58978257 3.21302675 -10 4 C-9.67 3.01 -9.34 2.02 -9 1 C-5.8035914 -0.06546953 -3.34252724 -0.07427838 0 0 Z " fill="#787973" transform="translate(409,240)"/>
<path d="M0 0 C0.99 0 1.98 0 3 0 C3 1.65 3 3.3 3 5 C1.02 5.99 1.02 5.99 -1 7 C-0.67 4.69 -0.34 2.38 0 0 Z M1 2 C2 5 2 5 2 5 Z " fill="#690C0A" transform="translate(100,232)"/>
<path d="M0 0 C-0.99 0.33 -1.98 0.66 -3 1 C-3 1.66 -3 2.32 -3 3 C-3.99 3.33 -4.98 3.66 -6 4 C-6 3.01 -6 2.02 -6 1 C-6.99 0.67 -7.98 0.34 -9 0 C-5.52176885 -1.15941038 -3.54104422 -0.70820884 0 0 Z " fill="#E16E24" transform="translate(141,230)"/>
<path d="M0 0 C0 0.66 0 1.32 0 2 C-2.14720899 4.14720899 -3.07790143 4.5434221 -6 5 C-6.66 4.67 -7.32 4.34 -8 4 C-2.25 0 -2.25 0 0 0 Z " fill="#91410A" transform="translate(161,220)"/>
<path d="M0 0 C0.33 0 0.66 0 1 0 C1 2.64 1 5.28 1 8 C0.34 8 -0.32 8 -1 8 C-1.625 5.6875 -1.625 5.6875 -2 3 C-1.34 2.01 -0.68 1.02 0 0 Z " fill="#CB2826" transform="translate(98,214)"/>
<path d="" fill="#000000" transform="translate(0,0)"/>
<path d="" fill="#000000" transform="translate(0,0)"/>
<path d="" fill="#000000" transform="translate(0,0)"/>
<path d="" fill="#000000" transform="translate(0,0)"/>
<path d="" fill="#000000" transform="translate(0,0)"/>
<path d="" fill="#000000" transform="translate(0,0)"/>
<path d="" fill="#000000" transform="translate(0,0)"/>
<path d="" fill="#000000" transform="translate(0,0)"/>
<path d="" fill="#000000" transform="translate(0,0)"/>
<path d="" fill="#000000" transform="translate(0,0)"/>
<path d="" fill="#000000" transform="translate(0,0)"/>
<path d="" fill="#000000" transform="translate(0,0)"/>
<path d="" fill="#000000" transform="translate(0,0)"/>
<path d="" fill="#000000" transform="translate(0,0)"/>
<path d="" fill="#000000" transform="translate(0,0)"/>
<path d="" fill="#000000" transform="translate(0,0)"/>
<path d="" fill="#000000" transform="translate(0,0)"/>
<path d="" fill="#000000" transform="translate(0,0)"/>
<path d="" fill="#000000" transform="translate(0,0)"/>
<path d="" fill="#000000" transform="translate(0,0)"/>
<path d="" fill="#000000" transform="translate(0,0)"/>
<path d="" fill="#000000" transform="translate(0,0)"/>
<path d="" fill="#000000" transform="translate(0,0)"/>
<path d="" fill="#000000" transform="translate(0,0)"/>
<path d="" fill="#000000" transform="translate(0,0)"/>
<path d="" fill="#000000" transform="translate(0,0)"/>
<path d="" fill="#000000" transform="translate(0,0)"/>
<path d="" fill="#000000" transform="translate(0,0)"/>
<path d="" fill="#000000" transform="translate(0,0)"/>
<path d="" fill="#000000" transform="translate(0,0)"/>
<path d="" fill="#000000" transform="translate(0,0)"/>
<path d="" fill="#000000" transform="translate(0,0)"/>
<path d="" fill="#000000" transform="translate(0,0)"/>
<path d="" fill="#000000" transform="translate(0,0)"/>
<path d="" fill="#000000" transform="translate(0,0)"/>
<path d="" fill="#000000" transform="translate(0,0)"/>
<path d="" fill="#000000" transform="translate(0,0)"/>
<path d="" fill="#000000" transform="translate(0,0)"/>
<path d="" fill="#000000" transform="translate(0,0)"/>
<path d="" fill="#000000" transform="translate(0,0)"/>
<path d="" fill="#000000" transform="translate(0,0)"/>
<path d="" fill="#000000" transform="translate(0,0)"/>
<path d="" fill="#000000" transform="translate(0,0)"/>
<path d="" fill="#000000" transform="translate(0,0)"/>
<path d="" fill="#000000" transform="translate(0,0)"/>
<path d="" fill="#000000" transform="translate(0,0)"/>
<path d="" fill="#000000" transform="translate(0,0)"/>
<path d="" fill="#000000" transform="translate(0,0)"/>
<path d="" fill="#000000" transform="translate(0,0)"/>
<path d="" fill="#000000" transform="translate(0,0)"/>
<path d="" fill="#000000" transform="translate(0,0)"/>
<path d="" fill="#000000" transform="translate(0,0)"/>
<path d="" fill="#000000" transform="translate(0,0)"/>
<path d="" fill="#000000" transform="translate(0,0)"/>
<path d="" fill="#000000" transform="translate(0,0)"/>
<path d="" fill="#000000" transform="translate(0,0)"/>
<path d="" fill="#000000" transform="translate(0,0)"/>
<path d="" fill="#000000" transform="translate(0,0)"/>
<path d="" fill="#000000" transform="translate(0,0)"/>
<path d="" fill="#000000" transform="translate(0,0)"/>
<path d="" fill="#000000" transform="translate(0,0)"/>
<path d="" fill="#000000" transform="translate(0,0)"/>
<path d="" fill="#000000" transform="translate(0,0)"/>
<path d="" fill="#000000" transform="translate(0,0)"/>
<path d="" fill="#000000" transform="translate(0,0)"/>
<path d="" fill="#000000" transform="translate(0,0)"/>
<path d="" fill="#000000" transform="translate(0,0)"/>
<path d="" fill="#000000" transform="translate(0,0)"/>
<path d="" fill="#000000" transform="translate(0,0)"/>
<path d="" fill="#000000" transform="translate(0,0)"/>
<path d="" fill="#000000" transform="translate(0,0)"/>
<path d="" fill="#000000" transform="translate(0,0)"/>
<path d="" fill="#000000" transform="translate(0,0)"/>
<path d="" fill="#000000" transform="translate(0,0)"/>
<path d="" fill="#0000FF" transform="translate(0,0)"/>
<path d="" fill="#000000" transform="translate(0,0)"/>
<path d="" fill="#000000" transform="translate(0,0)"/>
<path d="" fill="#000000" transform="translate(0,0)"/>
<path d="" fill="#000000" transform="translate(0,0)"/>
<path d="" fill="#000000" transform="translate(0,0)"/>
<path d="" fill="#000000" transform="translate(0,0)"/>
<path d="" fill="#000000" transform="translate(0,0)"/>
<path d="" fill="#000000" transform="translate(0,0)"/>
<path d="" fill="#000000" transform="translate(0,0)"/>
<path d="" fill="#000000" transform="translate(0,0)"/>
<path d="" fill="#000000" transform="translate(0,0)"/>
<path d="" fill="#000000" transform="translate(0,0)"/>
</svg>
